STARTFONT 2.3
FONT -FontForge-Monofett-Book-R-Normal--12-120-72-72-P-66-ISO10646-1
SIZE 12 72 72  2
FONTBOUNDINGBOX 8 14 0 -2
COMMENT "Generated by fontforge, http://fontforge.sourceforge.net"
COMMENT "Copyright (c) 2011 by vernon adams. All rights reserved."
STARTPROPERTIES 41
FOUNDRY "FontForge"
FAMILY_NAME "Monofett"
WEIGHT_NAME "Book"
SLANT "R"
SETWIDTH_NAME "Normal"
ADD_STYLE_NAME ""
PIXEL_SIZE 12
POINT_SIZE 120
RESOLUTION_X 72
RESOLUTION_Y 72
SPACING "P"
AVERAGE_WIDTH 66
CHARSET_REGISTRY "ISO10646"
CHARSET_ENCODING "1"
FONTNAME_REGISTRY ""
CHARSET_COLLECTIONS "ISO8859-2 ISO8859-9 ISO8859-4 ISO10646-1"
BITS_PER_PIXEL 2
FONT_NAME "Monofett"
FACE_NAME "Monofett"
COPYRIGHT "Copyright (c) 2011 by vernon adams. All rights reserved."
FONT_VERSION "1.000"
FONT_ASCENT 10
FONT_DESCENT 2
UNDERLINE_POSITION -2
UNDERLINE_THICKNESS 1
X_HEIGHT 7
CAP_HEIGHT 7
RAW_ASCENT 799
RAW_DESCENT 200
NORM_SPACE 2
RELATIVE_WEIGHT 40
RELATIVE_SETWIDTH 50
SUPERSCRIPT_X 0
SUPERSCRIPT_Y 5
SUPERSCRIPT_SIZE 7
SUBSCRIPT_X 0
SUBSCRIPT_Y 1
SUBSCRIPT_SIZE 7
FIGURE_WIDTH 7
AVG_LOWERCASE_WIDTH 70
AVG_UPPERCASE_WIDTH 70
ENDPROPERTIES
CHARS 409
STARTCHAR uni000D
ENCODING 13
SWIDTH 144 0
DWIDTH 2 0
BBX 1 1 0 0
BITMAP
00
ENDCHAR
STARTCHAR space
ENCODING 32
SWIDTH 144 0
DWIDTH 2 0
BBX 1 1 0 0
BITMAP
00
ENDCHAR
STARTCHAR exclam
ENCODING 33
SWIDTH 424 0
DWIDTH 5 0
BBX 5 8 0 0
BITMAP
6A40
F7C0
F7C0
FBC0
FBC0
FBC0
FFC0
6E40
ENDCHAR
STARTCHAR quotedbl
ENCODING 34
SWIDTH 424 0
DWIDTH 5 0
BBX 5 8 0 0
BITMAP
6A40
F6C0
FFC0
FFC0
FFC0
FFC0
FFC0
6E40
ENDCHAR
STARTCHAR numbersign
ENCODING 35
SWIDTH 482 0
DWIDTH 6 0
BBX 6 8 0 0
BITMAP
6F80
F5E0
F5E0
F5E0
E5E0
FFE0
FFE0
6F80
ENDCHAR
STARTCHAR dollar
ENCODING 36
SWIDTH 578 0
DWIDTH 7 0
BBX 7 8 0 0
BITMAP
6EE0
F578
F5FC
F97C
F57C
F9BC
FFF8
6FE0
ENDCHAR
STARTCHAR percent
ENCODING 37
SWIDTH 578 0
DWIDTH 7 0
BBX 7 8 0 0
BITMAP
6FE0
D6B8
D5FC
FD5C
FA5C
FFFC
FFF8
6FE0
ENDCHAR
STARTCHAR ampersand
ENCODING 38
SWIDTH 578 0
DWIDTH 7 0
BBX 7 8 0 0
BITMAP
6AA0
F7F8
F66C
F6AC
F66C
FEBC
FFF8
6FE0
ENDCHAR
STARTCHAR quotesingle
ENCODING 39
SWIDTH 424 0
DWIDTH 5 0
BBX 5 8 0 0
BITMAP
6A40
F7C0
FFC0
FFC0
FFC0
FFC0
FFC0
6E40
ENDCHAR
STARTCHAR parenleft
ENCODING 40
SWIDTH 483 0
DWIDTH 6 0
BBX 6 8 0 0
BITMAP
6A80
F7E0
F7E0
F7E0
F7E0
F6E0
FFE0
6F80
ENDCHAR
STARTCHAR parenright
ENCODING 41
SWIDTH 483 0
DWIDTH 6 0
BBX 6 8 0 0
BITMAP
6A80
FDE0
FDE0
FDE0
FDE0
F9E0
FFE0
6F80
ENDCHAR
STARTCHAR asterisk
ENCODING 42
SWIDTH 428 0
DWIDTH 5 0
BBX 5 8 0 0
BITMAP
6A40
E180
E5C0
FFC0
FFC0
FFC0
FFC0
6E40
ENDCHAR
STARTCHAR plus
ENCODING 43
SWIDTH 428 0
DWIDTH 5 0
BBX 5 8 0 0
BITMAP
6B40
E6C0
E6C0
FBC0
FFC0
FFC0
FFC0
6E40
ENDCHAR
STARTCHAR comma
ENCODING 44
SWIDTH 428 0
DWIDTH 5 0
BBX 5 8 0 0
BITMAP
6F40
FFC0
FFC0
FFC0
FBC0
F7C0
FFC0
6E40
ENDCHAR
STARTCHAR hyphen
ENCODING 45
SWIDTH 428 0
DWIDTH 5 0
BBX 5 8 0 0
BITMAP
6F40
FFC0
E6C0
FFC0
FFC0
FFC0
FFC0
6E40
ENDCHAR
STARTCHAR period
ENCODING 46
SWIDTH 428 0
DWIDTH 5 0
BBX 5 8 0 0
BITMAP
6F40
FFC0
FFC0
FFC0
FBC0
FBC0
FFC0
6E40
ENDCHAR
STARTCHAR slash
ENCODING 47
SWIDTH 428 0
DWIDTH 5 0
BBX 5 8 0 0
BITMAP
6E40
FBC0
F7C0
F7C0
F7C0
FBC0
FFC0
6E40
ENDCHAR
STARTCHAR zero
ENCODING 48
SWIDTH 578 0
DWIDTH 7 0
BBX 7 8 0 0
BITMAP
6A60
F798
FBDC
FBDC
F69C
FABC
FFF8
6FE0
ENDCHAR
STARTCHAR one
ENCODING 49
SWIDTH 578 0
DWIDTH 7 0
BBX 7 8 0 0
BITMAP
6EE0
FDF8
FDFC
FDFC
FDFC
FEFC
FFF8
6FE0
ENDCHAR
STARTCHAR two
ENCODING 50
SWIDTH 578 0
DWIDTH 7 0
BBX 7 8 0 0
BITMAP
6AA0
FBA8
FEAC
F6BC
F6BC
FABC
FFF8
6FE0
ENDCHAR
STARTCHAR three
ENCODING 51
SWIDTH 578 0
DWIDTH 7 0
BBX 7 8 0 0
BITMAP
6AA0
EBA8
FE6C
FEAC
EA6C
FABC
FFF8
6FE0
ENDCHAR
STARTCHAR four
ENCODING 52
SWIDTH 578 0
DWIDTH 7 0
BBX 7 8 0 0
BITMAP
6BA0
F778
F77C
F66C
FE7C
FFBC
FFF8
6FE0
ENDCHAR
STARTCHAR five
ENCODING 53
SWIDTH 578 0
DWIDTH 7 0
BBX 7 8 0 0
BITMAP
6A60
F7F8
F57C
FFEC
FAAC
FABC
FFF8
6FE0
ENDCHAR
STARTCHAR six
ENCODING 54
SWIDTH 578 0
DWIDTH 7 0
BBX 7 8 0 0
BITMAP
6AA0
F6B8
F56C
F7DC
F69C
FABC
FFF8
6FE0
ENDCHAR
STARTCHAR seven
ENCODING 55
SWIDTH 578 0
DWIDTH 7 0
BBX 7 8 0 0
BITMAP
6A60
FF78
FEBC
FDFC
FDFC
FEFC
FFF8
6FE0
ENDCHAR
STARTCHAR eight
ENCODING 56
SWIDTH 578 0
DWIDTH 7 0
BBX 7 8 0 0
BITMAP
6AA0
F7A8
F66C
F6AC
F6AC
FABC
FFF8
6FE0
ENDCHAR
STARTCHAR nine
ENCODING 57
SWIDTH 578 0
DWIDTH 7 0
BBX 7 8 0 0
BITMAP
6AA0
EBA8
E7AC
FA6C
FAAC
FABC
FFF8
6FE0
ENDCHAR
STARTCHAR colon
ENCODING 58
SWIDTH 428 0
DWIDTH 5 0
BBX 5 8 0 0
BITMAP
6F40
FFC0
FFC0
F7C0
FBC0
FBC0
FFC0
6E40
ENDCHAR
STARTCHAR semicolon
ENCODING 59
SWIDTH 428 0
DWIDTH 5 0
BBX 5 8 0 0
BITMAP
6F40
FFC0
FFC0
FBC0
FBC0
F7C0
FFC0
6E40
ENDCHAR
STARTCHAR less
ENCODING 60
SWIDTH 482 0
DWIDTH 6 0
BBX 6 9 0 0
BITMAP
7F80
FFE0
FEE0
FBE0
EBE0
FBE0
FEE0
7FD0
0500
ENDCHAR
STARTCHAR equal
ENCODING 61
SWIDTH 482 0
DWIDTH 6 0
BBX 6 9 0 0
BITMAP
7F80
FFE0
FFE0
FAE0
FAE0
FFE0
FFE0
7FD0
1500
ENDCHAR
STARTCHAR greater
ENCODING 62
SWIDTH 482 0
DWIDTH 6 0
BBX 6 9 0 0
BITMAP
7F80
FFE0
FBE0
FEE0
FEE0
FAE0
FBE0
7FD0
1500
ENDCHAR
STARTCHAR question
ENCODING 63
SWIDTH 578 0
DWIDTH 7 0
BBX 7 8 0 0
BITMAP
6AA0
FBA8
FFAC
FDBC
FEFC
FEFC
FFF8
6FE0
ENDCHAR
STARTCHAR at
ENCODING 64
SWIDTH 578 0
DWIDTH 7 0
BBX 7 8 0 0
BITMAP
6960
DA98
DF6C
DA68
DA5C
E6FC
FFF8
6FE0
ENDCHAR
STARTCHAR A
ENCODING 65
SWIDTH 578 0
DWIDTH 7 0
BBX 7 8 0 0
BITMAP
6AA0
F778
F7AC
F56C
EBAC
FFEC
FFF8
6FE0
ENDCHAR
STARTCHAR B
ENCODING 66
SWIDTH 578 0
DWIDTH 7 0
BBX 7 8 0 0
BITMAP
66A0
EBA8
E66C
E6AC
E66C
FABC
FFF8
6FE0
ENDCHAR
STARTCHAR C
ENCODING 67
SWIDTH 578 0
DWIDTH 7 0
BBX 7 8 0 0
BITMAP
6AA0
F7F8
EBFC
EBFC
F6BC
FABC
FFF8
6FE0
ENDCHAR
STARTCHAR D
ENCODING 68
SWIDTH 578 0
DWIDTH 7 0
BBX 7 8 0 0
BITMAP
6660
F798
F7DC
F7DC
F69C
FABC
FFF8
6FE0
ENDCHAR
STARTCHAR E
ENCODING 69
SWIDTH 578 0
DWIDTH 7 0
BBX 7 8 0 0
BITMAP
6A60
F7F8
F6BC
F6BC
F6BC
FABC
FFF8
6FE0
ENDCHAR
STARTCHAR F
ENCODING 70
SWIDTH 578 0
DWIDTH 7 0
BBX 7 8 0 0
BITMAP
6A60
F7F8
F6BC
F7FC
F7FC
FBFC
FFF8
6FE0
ENDCHAR
STARTCHAR G
ENCODING 71
SWIDTH 578 0
DWIDTH 7 0
BBX 7 8 0 0
BITMAP
6A60
F7F8
F7FC
F75C
F69C
FABC
FFF8
6FE0
ENDCHAR
STARTCHAR H
ENCODING 72
SWIDTH 578 0
DWIDTH 7 0
BBX 7 8 0 0
BITMAP
6BD0
F7D8
F69C
F69C
F7DC
FBEC
FFF8
6FE0
ENDCHAR
STARTCHAR I
ENCODING 73
SWIDTH 578 0
DWIDTH 7 0
BBX 7 8 0 0
BITMAP
6A60
FDB8
FDFC
FDFC
F9BC
FABC
FFF8
6FE0
ENDCHAR
STARTCHAR J
ENCODING 74
SWIDTH 578 0
DWIDTH 7 0
BBX 7 8 0 0
BITMAP
6FA0
FF78
FF7C
FF7C
FE7C
FEFC
FFF8
6FE0
ENDCHAR
STARTCHAR K
ENCODING 75
SWIDTH 578 0
DWIDTH 7 0
BBX 7 8 0 0
BITMAP
6BD0
F768
F5BC
F5BC
F76C
FBEC
FFF8
6FE0
ENDCHAR
STARTCHAR L
ENCODING 76
SWIDTH 578 0
DWIDTH 7 0
BBX 7 8 0 0
BITMAP
6BE0
FAF8
FAFC
FAFC
FABC
FEBC
FFF8
6FE0
ENDCHAR
STARTCHAR M
ENCODING 77
SWIDTH 578 0
DWIDTH 7 0
BBX 7 8 0 0
BITMAP
6650
E9D8
EDDC
EEDC
EFDC
EFEC
FFF8
6FE0
ENDCHAR
STARTCHAR N
ENCODING 78
SWIDTH 578 0
DWIDTH 7 0
BBX 7 8 0 0
BITMAP
6AA0
F7A8
F7AC
F7AC
F7AC
FBFC
FFF8
6FE0
ENDCHAR
STARTCHAR O
ENCODING 79
SWIDTH 578 0
DWIDTH 7 0
BBX 7 8 0 0
BITMAP
6A60
F798
F7DC
F7DC
F69C
FABC
FFF8
6FE0
ENDCHAR
STARTCHAR P
ENCODING 80
SWIDTH 578 0
DWIDTH 7 0
BBX 7 8 0 0
BITMAP
6AA0
F7A8
F7AC
F57C
F7FC
FBFC
FFF8
6FE0
ENDCHAR
STARTCHAR Q
ENCODING 81
SWIDTH 578 0
DWIDTH 7 0
BBX 7 8 0 0
BITMAP
6A60
F798
F7DC
F7DC
F59C
FA7C
FFF8
6FE0
ENDCHAR
STARTCHAR R
ENCODING 82
SWIDTH 578 0
DWIDTH 7 0
BBX 7 8 0 0
BITMAP
66A0
F768
F67C
F67C
F7AC
FBFC
FFF8
6FE0
ENDCHAR
STARTCHAR S
ENCODING 83
SWIDTH 578 0
DWIDTH 7 0
BBX 7 8 0 0
BITMAP
6A60
F7F8
F6BC
FEAC
FAAC
FABC
FFF8
6FE0
ENDCHAR
STARTCHAR T
ENCODING 84
SWIDTH 578 0
DWIDTH 7 0
BBX 7 8 0 0
BITMAP
6A60
FDB8
FDFC
FDFC
FDFC
FEFC
FFF8
6FE0
ENDCHAR
STARTCHAR U
ENCODING 85
SWIDTH 578 0
DWIDTH 7 0
BBX 7 8 0 0
BITMAP
6BD0
FBD8
FBDC
FBDC
F69C
FABC
FFF8
6FE0
ENDCHAR
STARTCHAR V
ENCODING 86
SWIDTH 578 0
DWIDTH 7 0
BBX 7 8 0 0
BITMAP
6BE0
F7A8
F77C
FA7C
FD7C
FEFC
FFF8
6FE0
ENDCHAR
STARTCHAR W
ENCODING 87
SWIDTH 578 0
DWIDTH 7 0
BBX 7 8 0 0
BITMAP
5ED0
DDD8
DC9C
E99C
E65C
FBBC
FFF8
6FE0
ENDCHAR
STARTCHAR X
ENCODING 88
SWIDTH 578 0
DWIDTH 7 0
BBX 7 8 0 0
BITMAP
6BE0
F768
FD7C
FD7C
F7AC
FFFC
FFF8
6FE0
ENDCHAR
STARTCHAR Y
ENCODING 89
SWIDTH 578 0
DWIDTH 7 0
BBX 7 8 0 0
BITMAP
6BA0
F778
F97C
FDBC
FDFC
FEFC
FFF8
6FE0
ENDCHAR
STARTCHAR Z
ENCODING 90
SWIDTH 578 0
DWIDTH 7 0
BBX 7 8 0 0
BITMAP
6AA0
FF78
FEBC
FDFC
F6BC
FABC
FFF8
6FE0
ENDCHAR
STARTCHAR bracketleft
ENCODING 91
SWIDTH 484 0
DWIDTH 6 0
BBX 6 8 0 0
BITMAP
6A80
F7E0
F7F0
F7F0
F7F0
F6F0
FFE0
6F80
ENDCHAR
STARTCHAR backslash
ENCODING 92
SWIDTH 516 0
DWIDTH 6 0
BBX 7 8 0 0
BITMAP
6BD0
FAF0
FAF4
FDF4
FDF4
FEF4
FFF0
6FD0
ENDCHAR
STARTCHAR bracketright
ENCODING 93
SWIDTH 484 0
DWIDTH 6 0
BBX 6 8 0 0
BITMAP
6A80
FAE0
FAF0
FAF0
FAF0
FAF0
FFE0
6F80
ENDCHAR
STARTCHAR asciicircum
ENCODING 94
SWIDTH 355 0
DWIDTH 4 0
BBX 5 4 0 3
BITMAP
3D00
AA00
EB40
FF00
ENDCHAR
STARTCHAR underscore
ENCODING 95
SWIDTH 428 0
DWIDTH 5 0
BBX 5 8 0 0
BITMAP
6F40
FFC0
FFC0
FFC0
FFC0
D5C0
FFC0
6E40
ENDCHAR
STARTCHAR grave
ENCODING 96
SWIDTH 308 0
DWIDTH 4 0
BBX 4 4 0 0
BITMAP
BC
DD
7A
2D
ENDCHAR
STARTCHAR a
ENCODING 97
SWIDTH 578 0
DWIDTH 7 0
BBX 7 8 0 0
BITMAP
6AA0
FF78
FE7C
E67C
E67C
FABC
FFF8
6FE0
ENDCHAR
STARTCHAR b
ENCODING 98
SWIDTH 578 0
DWIDTH 7 0
BBX 7 8 0 0
BITMAP
66A0
EBA8
E66C
E6AC
E66C
FABC
FFF8
6FE0
ENDCHAR
STARTCHAR c
ENCODING 99
SWIDTH 578 0
DWIDTH 7 0
BBX 7 8 0 0
BITMAP
6AA0
F7F8
EBFC
EBFC
F6BC
FABC
FFF8
6FE0
ENDCHAR
STARTCHAR d
ENCODING 100
SWIDTH 578 0
DWIDTH 7 0
BBX 7 8 0 0
BITMAP
6660
F798
F7DC
F7DC
F69C
FABC
FFF8
6FE0
ENDCHAR
STARTCHAR e
ENCODING 101
SWIDTH 578 0
DWIDTH 7 0
BBX 7 8 0 0
BITMAP
6AA0
EB78
E57C
EBFC
F6BC
FFFC
FFF8
6FE0
ENDCHAR
STARTCHAR f
ENCODING 102
SWIDTH 578 0
DWIDTH 7 0
BBX 7 8 0 0
BITMAP
6A60
F7F8
F6BC
F7FC
F7FC
FBFC
FFF8
6FE0
ENDCHAR
STARTCHAR g
ENCODING 103
SWIDTH 578 0
DWIDTH 7 0
BBX 7 8 0 0
BITMAP
6A60
F7F8
F7FC
F75C
F69C
FABC
FFF8
6FE0
ENDCHAR
STARTCHAR h
ENCODING 104
SWIDTH 578 0
DWIDTH 7 0
BBX 7 8 0 0
BITMAP
6BD0
F7D8
F69C
F69C
F7DC
FBEC
FFF8
6FE0
ENDCHAR
STARTCHAR i
ENCODING 105
SWIDTH 578 0
DWIDTH 7 0
BBX 7 8 0 0
BITMAP
6A60
FDB8
FDFC
FDFC
F9BC
FABC
FFF8
6FE0
ENDCHAR
STARTCHAR j
ENCODING 106
SWIDTH 578 0
DWIDTH 7 0
BBX 7 8 0 0
BITMAP
6FA0
FF78
FF7C
FF7C
FE7C
FEFC
FFF8
6FE0
ENDCHAR
STARTCHAR k
ENCODING 107
SWIDTH 578 0
DWIDTH 7 0
BBX 7 8 0 0
BITMAP
6BD0
F768
F5BC
F5BC
F76C
FBEC
FFF8
6FE0
ENDCHAR
STARTCHAR l
ENCODING 108
SWIDTH 578 0
DWIDTH 7 0
BBX 7 8 0 0
BITMAP
6BE0
FAF8
FAFC
FAFC
FABC
FEBC
FFF8
6FE0
ENDCHAR
STARTCHAR m
ENCODING 109
SWIDTH 578 0
DWIDTH 7 0
BBX 7 8 0 0
BITMAP
6650
E9D8
EDDC
EEDC
EFDC
EFEC
FFF8
6FE0
ENDCHAR
STARTCHAR n
ENCODING 110
SWIDTH 578 0
DWIDTH 7 0
BBX 7 8 0 0
BITMAP
6AA0
F7A8
F7AC
F7AC
F7AC
FBFC
FFF8
6FE0
ENDCHAR
STARTCHAR o
ENCODING 111
SWIDTH 578 0
DWIDTH 7 0
BBX 7 8 0 0
BITMAP
6A60
F798
F7DC
F7DC
F69C
FABC
FFF8
6FE0
ENDCHAR
STARTCHAR p
ENCODING 112
SWIDTH 578 0
DWIDTH 7 0
BBX 7 8 0 0
BITMAP
6AA0
F7A8
F7AC
F57C
F7FC
FBFC
FFF8
6FE0
ENDCHAR
STARTCHAR q
ENCODING 113
SWIDTH 578 0
DWIDTH 7 0
BBX 7 8 0 0
BITMAP
6A60
F798
F7DC
F7DC
F59C
FA7C
FFF8
6FE0
ENDCHAR
STARTCHAR r
ENCODING 114
SWIDTH 578 0
DWIDTH 7 0
BBX 7 8 0 0
BITMAP
66A0
F768
F67C
F67C
F7AC
FBFC
FFF8
6FE0
ENDCHAR
STARTCHAR s
ENCODING 115
SWIDTH 578 0
DWIDTH 7 0
BBX 7 8 0 0
BITMAP
6A60
F7F8
F6BC
FEAC
FAAC
FABC
FFF8
6FE0
ENDCHAR
STARTCHAR t
ENCODING 116
SWIDTH 578 0
DWIDTH 7 0
BBX 7 8 0 0
BITMAP
6A60
FDB8
FDFC
FDFC
FDFC
FEFC
FFF8
6FE0
ENDCHAR
STARTCHAR u
ENCODING 117
SWIDTH 578 0
DWIDTH 7 0
BBX 7 8 0 0
BITMAP
6BD0
FBD8
FBDC
FBDC
F69C
FABC
FFF8
6FE0
ENDCHAR
STARTCHAR v
ENCODING 118
SWIDTH 578 0
DWIDTH 7 0
BBX 7 8 0 0
BITMAP
6BE0
F7A8
F77C
FA7C
FD7C
FEFC
FFF8
6FE0
ENDCHAR
STARTCHAR w
ENCODING 119
SWIDTH 578 0
DWIDTH 7 0
BBX 7 8 0 0
BITMAP
5ED0
DDD8
DC9C
E99C
E65C
FBBC
FFF8
6FE0
ENDCHAR
STARTCHAR x
ENCODING 120
SWIDTH 578 0
DWIDTH 7 0
BBX 7 8 0 0
BITMAP
6BE0
F768
FD7C
FD7C
F7AC
FFFC
FFF8
6FE0
ENDCHAR
STARTCHAR y
ENCODING 121
SWIDTH 578 0
DWIDTH 7 0
BBX 7 8 0 0
BITMAP
6BA0
F778
F97C
FDBC
FDFC
FEFC
FFF8
6FE0
ENDCHAR
STARTCHAR z
ENCODING 122
SWIDTH 578 0
DWIDTH 7 0
BBX 7 8 0 0
BITMAP
6AA0
FF78
FEBC
FDFC
F6BC
FABC
FFF8
6FE0
ENDCHAR
STARTCHAR braceleft
ENCODING 123
SWIDTH 484 0
DWIDTH 6 0
BBX 6 8 0 0
BITMAP
6980
F7E0
F7F0
E7F0
F7F0
F5F0
FFE0
6F80
ENDCHAR
STARTCHAR bar
ENCODING 124
SWIDTH 484 0
DWIDTH 6 0
BBX 6 8 0 0
BITMAP
6A80
FBE0
FBF0
FBF0
FBF0
FBF0
FFE0
6F80
ENDCHAR
STARTCHAR braceright
ENCODING 125
SWIDTH 484 0
DWIDTH 6 0
BBX 6 8 0 0
BITMAP
6680
FDE0
FDF0
FDB0
FDF0
F6F0
FFE0
6F80
ENDCHAR
STARTCHAR asciitilde
ENCODING 126
SWIDTH 578 0
DWIDTH 7 0
BBX 7 8 0 0
BITMAP
6FE0
FFF8
F57C
FFFC
FFFC
FFFC
FFF8
6FE0
ENDCHAR
STARTCHAR uni00A0
ENCODING 160
SWIDTH 151 0
DWIDTH 2 0
BBX 1 1 0 0
BITMAP
00
ENDCHAR
STARTCHAR exclamdown
ENCODING 161
SWIDTH 424 0
DWIDTH 5 0
BBX 5 8 0 0
BITMAP
6A40
FBC0
FBC0
FBC0
FBC0
FBC0
FFC0
6E40
ENDCHAR
STARTCHAR cent
ENCODING 162
SWIDTH 578 0
DWIDTH 7 0
BBX 7 8 0 0
BITMAP
6EE0
F578
F6FC
F6FC
F5BC
FDFC
FFF8
6FE0
ENDCHAR
STARTCHAR sterling
ENCODING 163
SWIDTH 578 0
DWIDTH 7 0
BBX 7 8 0 0
BITMAP
6EA0
FA78
F6FC
F6BC
FABC
FEBC
FFF8
6FE0
ENDCHAR
STARTCHAR currency
ENCODING 164
SWIDTH 578 0
DWIDTH 7 0
BBX 7 8 0 0
BITMAP
6BE0
F678
F7BC
F67C
FBEC
FFFC
FFF8
6FE0
ENDCHAR
STARTCHAR yen
ENCODING 165
SWIDTH 578 0
DWIDTH 7 0
BBX 7 8 0 0
BITMAP
6BA0
F778
FABC
F8BC
F9BC
FEFC
FFF8
6FE0
ENDCHAR
STARTCHAR brokenbar
ENCODING 166
SWIDTH 484 0
DWIDTH 6 0
BBX 6 8 0 0
BITMAP
6B80
FAE0
FBF0
FAF0
FAF0
FFF0
FFE0
6F80
ENDCHAR
STARTCHAR section
ENCODING 167
SWIDTH 578 0
DWIDTH 7 0
BBX 7 8 0 0
BITMAP
6AA0
F7F8
F5BC
FA7C
FF7C
FA7C
FFF8
6FE0
ENDCHAR
STARTCHAR dieresis
ENCODING 168
SWIDTH 388 0
DWIDTH 5 0
BBX 5 4 0 0
BITMAP
1500
BF40
DA80
6A40
ENDCHAR
STARTCHAR copyright
ENCODING 169
SWIDTH 578 0
DWIDTH 7 0
BBX 7 8 0 0
BITMAP
6AA0
EAA8
EBE8
EBF8
EAAC
FAAC
FFF8
6FE0
ENDCHAR
STARTCHAR ordfeminine
ENCODING 170
SWIDTH 578 0
DWIDTH 7 0
BBX 7 8 0 0
BITMAP
6AA0
FF78
F97C
F77C
FABC
FFFC
FFF8
6FE0
ENDCHAR
STARTCHAR guillemotleft
ENCODING 171
SWIDTH 578 0
DWIDTH 7 0
BBX 7 8 0 0
BITMAP
6FE0
FEB8
FAFC
FAFC
FABC
FEBC
FFF8
6FE0
ENDCHAR
STARTCHAR uni00AD
ENCODING 173
SWIDTH 428 0
DWIDTH 5 0
BBX 5 8 0 0
BITMAP
6F40
FFC0
E6C0
FFC0
FFC0
FFC0
FFC0
6E40
ENDCHAR
STARTCHAR registered
ENCODING 174
SWIDTH 578 0
DWIDTH 7 0
BBX 7 8 0 0
BITMAP
6AA0
EAA8
EBA8
EAB8
EBAC
FAAC
FFF8
6FE0
ENDCHAR
STARTCHAR macron
ENCODING 175
SWIDTH 428 0
DWIDTH 5 0
BBX 5 4 0 0
BITMAP
1500
BF80
E6C0
BF80
ENDCHAR
STARTCHAR degree
ENCODING 176
SWIDTH 428 0
DWIDTH 5 0
BBX 5 8 0 0
BITMAP
6A40
E9C0
F6C0
FFC0
FFC0
FFC0
FFC0
6E40
ENDCHAR
STARTCHAR plusminus
ENCODING 177
SWIDTH 428 0
DWIDTH 5 0
BBX 5 8 0 0
BITMAP
6B40
E6C0
E6C0
FBC0
EAC0
FFC0
FFC0
6E40
ENDCHAR
STARTCHAR uni00B2
ENCODING 178
SWIDTH 578 0
DWIDTH 7 0
BBX 7 8 0 0
BITMAP
6AA0
FA78
F6FC
F9BC
FFFC
FFFC
FFF8
6FE0
ENDCHAR
STARTCHAR uni00B3
ENCODING 179
SWIDTH 578 0
DWIDTH 7 0
BBX 7 8 0 0
BITMAP
6EA0
FA78
FA7C
F97C
FFFC
FFFC
FFF8
6FE0
ENDCHAR
STARTCHAR acute
ENCODING 180
SWIDTH 308 0
DWIDTH 4 0
BBX 4 4 0 0
BITMAP
7D
AA
EC
B4
ENDCHAR
STARTCHAR uni00B5
ENCODING 181
SWIDTH 578 0
DWIDTH 7 0
BBX 7 8 0 0
BITMAP
6BE0
EBA8
EBAC
EBAC
E6AC
E6BC
FFF8
6FE0
ENDCHAR
STARTCHAR paragraph
ENCODING 182
SWIDTH 578 0
DWIDTH 7 0
BBX 7 8 0 0
BITMAP
6AA0
F0B8
F0BC
FEBC
FEBC
FFFC
FFF8
6FE0
ENDCHAR
STARTCHAR periodcentered
ENCODING 183
SWIDTH 428 0
DWIDTH 5 0
BBX 5 8 0 0
BITMAP
6F40
FFC0
F7C0
FFC0
FFC0
FFC0
FFC0
6E40
ENDCHAR
STARTCHAR cedilla
ENCODING 184
SWIDTH 101 0
DWIDTH 1 0
BBX 1 2 0 -2
BITMAP
80
80
ENDCHAR
STARTCHAR uni00B9
ENCODING 185
SWIDTH 578 0
DWIDTH 7 0
BBX 7 8 0 0
BITMAP
6EE0
FDF8
FDFC
FEFC
FFFC
FFFC
FFF8
6FE0
ENDCHAR
STARTCHAR ordmasculine
ENCODING 186
SWIDTH 578 0
DWIDTH 7 0
BBX 7 8 0 0
BITMAP
6AA0
F7A8
F7AC
F7AC
FABC
FFFC
FFF8
6FE0
ENDCHAR
STARTCHAR guillemotright
ENCODING 187
SWIDTH 578 0
DWIDTH 7 0
BBX 7 8 0 0
BITMAP
6FE0
FAF8
FABC
FEBC
FABC
FAFC
FFF8
6FE0
ENDCHAR
STARTCHAR onequarter
ENCODING 188
SWIDTH 578 0
DWIDTH 7 0
BBX 7 8 0 0
BITMAP
5EE0
99F8
E9AC
E59C
F648
FBDC
FFF8
6FE0
ENDCHAR
STARTCHAR onehalf
ENCODING 189
SWIDTH 578 0
DWIDTH 7 0
BBX 7 8 0 0
BITMAP
5EE0
99F8
E95C
E698
F66C
FBAC
FFF8
6FE0
ENDCHAR
STARTCHAR threequarters
ENCODING 190
SWIDTH 578 0
DWIDTH 7 0
BBX 7 8 0 0
BITMAP
5EE0
99F8
E958
E698
F6A4
FBAC
FFF8
6FE0
ENDCHAR
STARTCHAR questiondown
ENCODING 191
SWIDTH 578 0
DWIDTH 7 0
BBX 7 8 0 0
BITMAP
6EE0
FEF8
F9FC
F7FC
F6AC
FEBC
FFF8
6FE0
ENDCHAR
STARTCHAR Agrave
ENCODING 192
SWIDTH 578 0
DWIDTH 7 0
BBX 7 11 0 0
BITMAP
2F00
2A40
1E80
6FE0
F778
F7AC
F56C
EBAC
FFEC
FFF8
6FE0
ENDCHAR
STARTCHAR Aacute
ENCODING 193
SWIDTH 578 0
DWIDTH 7 0
BBX 7 11 0 0
BITMAP
03E0
0AA0
0AD0
6FE0
F778
F7AC
F56C
EBAC
FFEC
FFF8
6FE0
ENDCHAR
STARTCHAR Acircumflex
ENCODING 194
SWIDTH 578 0
DWIDTH 7 0
BBX 7 12 0 0
BITMAP
0100
0BC0
0DD0
1BA0
7FF0
F778
F7AC
F56C
EBAC
FFEC
FFF8
6FE0
ENDCHAR
STARTCHAR Atilde
ENCODING 195
SWIDTH 578 0
DWIDTH 7 0
BBX 7 12 0 0
BITMAP
0A90
2FF0
3AB4
2FA0
6AA0
F778
F7AC
F56C
EBAC
FFEC
FFF8
6FE0
ENDCHAR
STARTCHAR Adieresis
ENCODING 196
SWIDTH 578 0
DWIDTH 7 0
BBX 7 11 0 0
BITMAP
0540
1FE0
2B70
7FF0
F778
F7AC
F56C
EBAC
FFEC
FFF8
6FE0
ENDCHAR
STARTCHAR Aring
ENCODING 197
SWIDTH 578 0
DWIDTH 7 0
BBX 7 12 0 0
BITMAP
0640
1EA0
2AA0
1FE0
6AA0
F778
F7AC
F56C
EBAC
FFEC
FFF8
6FE0
ENDCHAR
STARTCHAR AE
ENCODING 198
SWIDTH 578 0
DWIDTH 7 0
BBX 7 8 0 0
BITMAP
6950
F5F8
E9AC
E9BC
E5BC
FEBC
FFF8
6FE0
ENDCHAR
STARTCHAR Ccedilla
ENCODING 199
SWIDTH 578 0
DWIDTH 7 0
BBX 7 8 0 0
BITMAP
6AA0
F7F8
EBFC
EBFC
F6BC
F9BC
FAF8
6FE0
ENDCHAR
STARTCHAR Egrave
ENCODING 200
SWIDTH 578 0
DWIDTH 7 0
BBX 7 11 0 0
BITMAP
1F40
2A80
1EC0
6FE0
F7F8
F6BC
F6BC
F6BC
FABC
FFF8
6FE0
ENDCHAR
STARTCHAR Eacute
ENCODING 201
SWIDTH 578 0
DWIDTH 7 0
BBX 7 11 0 0
BITMAP
03E0
07B0
0AD0
6FE0
F7F8
F6BC
F6BC
F6BC
FABC
FFF8
6FE0
ENDCHAR
STARTCHAR Ecircumflex
ENCODING 202
SWIDTH 578 0
DWIDTH 7 0
BBX 7 12 0 0
BITMAP
0100
0BC0
0D90
1EA0
7FF0
F7F8
F6BC
F6BC
F6BC
FABC
FFF8
6FE0
ENDCHAR
STARTCHAR Edieresis
ENCODING 203
SWIDTH 578 0
DWIDTH 7 0
BBX 7 11 0 0
BITMAP
0140
1FE0
2A70
7FF0
F7F8
F6BC
F6BC
F6BC
FABC
FFF8
6FE0
ENDCHAR
STARTCHAR Igrave
ENCODING 204
SWIDTH 578 0
DWIDTH 7 0
BBX 7 11 0 0
BITMAP
1F40
2A80
0EC0
6FE0
FDB8
FDFC
FDFC
F9BC
FABC
FFF8
6FE0
ENDCHAR
STARTCHAR Iacute
ENCODING 205
SWIDTH 578 0
DWIDTH 7 0
BBX 7 11 0 0
BITMAP
03E0
0770
0AD0
6FE0
FDB8
FDFC
FDFC
F9BC
FABC
FFF8
6FE0
ENDCHAR
STARTCHAR Icircumflex
ENCODING 206
SWIDTH 578 0
DWIDTH 7 0
BBX 7 12 0 0
BITMAP
0100
07C0
0EA0
1EB0
7FF0
FDB8
FDFC
FDFC
F9BC
FABC
FFF8
6FE0
ENDCHAR
STARTCHAR Idieresis
ENCODING 207
SWIDTH 578 0
DWIDTH 7 0
BBX 7 11 0 0
BITMAP
0140
1FE0
1A70
7FF0
FDB8
FDFC
FDFC
F9BC
FABC
FFF8
6FE0
ENDCHAR
STARTCHAR Eth
ENCODING 208
SWIDTH 578 0
DWIDTH 7 0
BBX 7 8 0 0
BITMAP
6660
F798
E7DC
F7DC
F69C
FABC
FFF8
6FE0
ENDCHAR
STARTCHAR Ntilde
ENCODING 209
SWIDTH 578 0
DWIDTH 7 0
BBX 7 12 0 0
BITMAP
0A80
2FF0
3AB0
2FE0
6AA0
F7A8
F7AC
F7AC
F7AC
FBFC
FFF8
6FE0
ENDCHAR
STARTCHAR Ograve
ENCODING 210
SWIDTH 578 0
DWIDTH 7 0
BBX 7 11 0 0
BITMAP
1F40
2A80
1EC0
6FE0
F798
F7DC
F7DC
F69C
FABC
FFF8
6FE0
ENDCHAR
STARTCHAR Oacute
ENCODING 211
SWIDTH 578 0
DWIDTH 7 0
BBX 7 11 0 0
BITMAP
03E0
06B0
0AD0
6FE0
F798
F7DC
F7DC
F69C
FABC
FFF8
6FE0
ENDCHAR
STARTCHAR Ocircumflex
ENCODING 212
SWIDTH 578 0
DWIDTH 7 0
BBX 7 12 0 0
BITMAP
0100
0BC0
0D90
1EA0
7FF0
F798
F7DC
F7DC
F69C
FABC
FFF8
6FE0
ENDCHAR
STARTCHAR Otilde
ENCODING 213
SWIDTH 578 0
DWIDTH 7 0
BBX 7 12 0 0
BITMAP
0A90
2FF0
2AB4
1FB0
6A60
F798
F7DC
F7DC
F69C
FABC
FFF8
6FE0
ENDCHAR
STARTCHAR Odieresis
ENCODING 214
SWIDTH 578 0
DWIDTH 7 0
BBX 7 11 0 0
BITMAP
0540
1FE0
2A70
7FF0
F798
F7DC
F7DC
F69C
FABC
FFF8
6FE0
ENDCHAR
STARTCHAR multiply
ENCODING 215
SWIDTH 578 0
DWIDTH 7 0
BBX 7 8 0 0
BITMAP
6FE0
FFF8
FDBC
FABC
FFFC
FFFC
FFF8
6FE0
ENDCHAR
STARTCHAR Oslash
ENCODING 216
SWIDTH 578 0
DWIDTH 7 0
BBX 7 8 0 0
BITMAP
6AA0
F768
EA9C
E5DC
F2AC
FABC
FFF8
6FE0
ENDCHAR
STARTCHAR Ugrave
ENCODING 217
SWIDTH 578 0
DWIDTH 7 0
BBX 7 11 0 0
BITMAP
1F40
2A80
1EC0
6FD0
FBD8
FBDC
FBDC
F69C
FABC
FFF8
6FE0
ENDCHAR
STARTCHAR Uacute
ENCODING 218
SWIDTH 578 0
DWIDTH 7 0
BBX 7 11 0 0
BITMAP
03E0
07B0
0AD0
6FE0
FBD8
FBDC
FBDC
F69C
FABC
FFF8
6FE0
ENDCHAR
STARTCHAR Ucircumflex
ENCODING 219
SWIDTH 578 0
DWIDTH 7 0
BBX 7 12 0 0
BITMAP
0100
0BC0
0D90
1EA0
7FF0
FBD8
FBDC
FBDC
F69C
FABC
FFF8
6FE0
ENDCHAR
STARTCHAR Udieresis
ENCODING 220
SWIDTH 578 0
DWIDTH 7 0
BBX 7 11 0 0
BITMAP
0140
1FE0
2A70
7FF0
FBD8
FBDC
FBDC
F69C
FABC
FFF8
6FE0
ENDCHAR
STARTCHAR Yacute
ENCODING 221
SWIDTH 578 0
DWIDTH 7 0
BBX 7 11 0 0
BITMAP
03E0
07B0
0AD0
6FE0
F778
F97C
FDBC
FDFC
FEFC
FFF8
6FE0
ENDCHAR
STARTCHAR Thorn
ENCODING 222
SWIDTH 578 0
DWIDTH 7 0
BBX 7 8 0 0
BITMAP
6BE0
F578
F7AC
F56C
F7FC
FBFC
FFF8
6FE0
ENDCHAR
STARTCHAR germandbls
ENCODING 223
SWIDTH 578 0
DWIDTH 7 0
BBX 7 8 0 0
BITMAP
6AA0
F7A8
FB7C
FB9C
FA9C
FABC
FFF8
6FE0
ENDCHAR
STARTCHAR agrave
ENCODING 224
SWIDTH 578 0
DWIDTH 7 0
BBX 7 11 0 0
BITMAP
1F40
2A80
1EC0
6FE0
FF78
FE7C
E67C
E67C
FABC
FFF8
6FE0
ENDCHAR
STARTCHAR aacute
ENCODING 225
SWIDTH 578 0
DWIDTH 7 0
BBX 7 11 0 0
BITMAP
03E0
07B0
0AD0
6FE0
FF78
FE7C
E67C
E67C
FABC
FFF8
6FE0
ENDCHAR
STARTCHAR acircumflex
ENCODING 226
SWIDTH 578 0
DWIDTH 7 0
BBX 7 12 0 0
BITMAP
0100
0BC0
0D90
1EA0
7FF0
FF78
FE7C
E67C
E67C
FABC
FFF8
6FE0
ENDCHAR
STARTCHAR atilde
ENCODING 227
SWIDTH 578 0
DWIDTH 7 0
BBX 7 12 0 0
BITMAP
0A90
2FF0
2AB4
1FB0
6AA0
FF78
FE7C
E67C
E67C
FABC
FFF8
6FE0
ENDCHAR
STARTCHAR adieresis
ENCODING 228
SWIDTH 578 0
DWIDTH 7 0
BBX 7 11 0 0
BITMAP
0140
1FE0
2A70
7FF0
FF78
FE7C
E67C
E67C
FABC
FFF8
6FE0
ENDCHAR
STARTCHAR aring
ENCODING 229
SWIDTH 578 0
DWIDTH 7 0
BBX 7 12 0 0
BITMAP
0680
1EA0
2A70
1FE0
6AA0
FF78
FE7C
E67C
E67C
FABC
FFF8
6FE0
ENDCHAR
STARTCHAR ae
ENCODING 230
SWIDTH 578 0
DWIDTH 7 0
BBX 7 8 0 0
BITMAP
6950
F5F8
E9AC
E9BC
E5BC
FEBC
FFF8
6FE0
ENDCHAR
STARTCHAR ccedilla
ENCODING 231
SWIDTH 578 0
DWIDTH 7 0
BBX 7 8 0 0
BITMAP
6AA0
F7F8
EBFC
EBFC
F6BC
F9BC
FAF8
6FE0
ENDCHAR
STARTCHAR egrave
ENCODING 232
SWIDTH 578 0
DWIDTH 7 0
BBX 7 12 0 0
BITMAP
1F40
2A80
1EC0
0B80
6AA0
EB78
E57C
EBFC
F6BC
FFFC
FFF8
6FE0
ENDCHAR
STARTCHAR eacute
ENCODING 233
SWIDTH 578 0
DWIDTH 7 0
BBX 7 12 0 0
BITMAP
07D0
0AA0
0ED0
0B80
6AA0
EB78
E57C
EBFC
F6BC
FFFC
FFF8
6FE0
ENDCHAR
STARTCHAR ecircumflex
ENCODING 234
SWIDTH 578 0
DWIDTH 7 0
BBX 7 12 0 0
BITMAP
0100
0B80
1DD0
2BA0
7FF0
EB78
E57C
EBFC
F6BC
FFFC
FFF8
6FE0
ENDCHAR
STARTCHAR edieresis
ENCODING 235
SWIDTH 578 0
DWIDTH 7 0
BBX 7 11 0 0
BITMAP
0540
2FD0
37A0
7FF0
EB78
E57C
EBFC
F6BC
FFFC
FFF8
6FE0
ENDCHAR
STARTCHAR igrave
ENCODING 236
SWIDTH 578 0
DWIDTH 7 0
BBX 7 11 0 0
BITMAP
1F40
2A80
1EC0
6FE0
FDB8
FDFC
FDFC
F9BC
FABC
FFF8
6FE0
ENDCHAR
STARTCHAR iacute
ENCODING 237
SWIDTH 578 0
DWIDTH 7 0
BBX 7 11 0 0
BITMAP
03E0
07B0
0AD0
6FE0
FDB8
FDFC
FDFC
F9BC
FABC
FFF8
6FE0
ENDCHAR
STARTCHAR icircumflex
ENCODING 238
SWIDTH 578 0
DWIDTH 7 0
BBX 7 12 0 0
BITMAP
0100
0BC0
0DA0
1EB0
7FF0
FDB8
FDFC
FDFC
F9BC
FABC
FFF8
6FE0
ENDCHAR
STARTCHAR idieresis
ENCODING 239
SWIDTH 578 0
DWIDTH 7 0
BBX 7 11 0 0
BITMAP
0140
1FE0
2A70
7FF0
FDB8
FDFC
FDFC
F9BC
FABC
FFF8
6FE0
ENDCHAR
STARTCHAR eth
ENCODING 240
SWIDTH 578 0
DWIDTH 7 0
BBX 7 8 0 0
BITMAP
6660
F798
E7DC
F7DC
F69C
FABC
FFF8
6FE0
ENDCHAR
STARTCHAR ntilde
ENCODING 241
SWIDTH 578 0
DWIDTH 7 0
BBX 7 12 0 0
BITMAP
0A80
2FF0
3AB0
2FE0
6AA0
F7A8
F7AC
F7AC
F7AC
FBFC
FFF8
6FE0
ENDCHAR
STARTCHAR oacute
ENCODING 243
SWIDTH 578 0
DWIDTH 7 0
BBX 7 11 0 0
BITMAP
07D0
0AA0
0ED0
6FE0
F798
F7DC
F7DC
F69C
FABC
FFF8
6FE0
ENDCHAR
STARTCHAR ocircumflex
ENCODING 244
SWIDTH 578 0
DWIDTH 7 0
BBX 7 12 0 0
BITMAP
0100
0BC0
0D90
1EA0
7FF0
F798
F7DC
F7DC
F69C
FABC
FFF8
6FE0
ENDCHAR
STARTCHAR otilde
ENCODING 245
SWIDTH 578 0
DWIDTH 7 0
BBX 7 12 0 0
BITMAP
0A90
2FF0
3AB4
2FB0
6A60
F798
F7DC
F7DC
F69C
FABC
FFF8
6FE0
ENDCHAR
STARTCHAR odieresis
ENCODING 246
SWIDTH 578 0
DWIDTH 7 0
BBX 7 11 0 0
BITMAP
0140
1FE0
2A70
7FF0
F798
F7DC
F7DC
F69C
FABC
FFF8
6FE0
ENDCHAR
STARTCHAR divide
ENCODING 247
SWIDTH 428 0
DWIDTH 5 0
BBX 5 8 0 0
BITMAP
6F40
F7C0
E6C0
F7C0
FFC0
FFC0
FFC0
6E40
ENDCHAR
STARTCHAR oslash
ENCODING 248
SWIDTH 578 0
DWIDTH 7 0
BBX 7 8 0 0
BITMAP
6AA0
F768
EA9C
E5DC
F2AC
FABC
FFF8
6FE0
ENDCHAR
STARTCHAR ugrave
ENCODING 249
SWIDTH 578 0
DWIDTH 7 0
BBX 7 11 0 0
BITMAP
1F40
2A80
1EC0
6FD0
FBD8
FBDC
FBDC
F69C
FABC
FFF8
6FE0
ENDCHAR
STARTCHAR uacute
ENCODING 250
SWIDTH 578 0
DWIDTH 7 0
BBX 7 11 0 0
BITMAP
03E0
07B0
0AD0
6FE0
FBD8
FBDC
FBDC
F69C
FABC
FFF8
6FE0
ENDCHAR
STARTCHAR ucircumflex
ENCODING 251
SWIDTH 578 0
DWIDTH 7 0
BBX 7 12 0 0
BITMAP
0100
0BC0
0DA0
1EB0
7FF0
FBD8
FBDC
FBDC
F69C
FABC
FFF8
6FE0
ENDCHAR
STARTCHAR udieresis
ENCODING 252
SWIDTH 578 0
DWIDTH 7 0
BBX 7 11 0 0
BITMAP
0140
1FE0
2A70
7FF0
FBD8
FBDC
FBDC
F69C
FABC
FFF8
6FE0
ENDCHAR
STARTCHAR yacute
ENCODING 253
SWIDTH 578 0
DWIDTH 7 0
BBX 7 11 0 0
BITMAP
03E0
07B0
0AD0
6FE0
F778
F97C
FDBC
FDFC
FEFC
FFF8
6FE0
ENDCHAR
STARTCHAR thorn
ENCODING 254
SWIDTH 578 0
DWIDTH 7 0
BBX 7 8 0 0
BITMAP
6BE0
F578
F7AC
F56C
F7FC
FBFC
FFF8
6FE0
ENDCHAR
STARTCHAR ydieresis
ENCODING 255
SWIDTH 578 0
DWIDTH 7 0
BBX 7 11 0 0
BITMAP
0540
1FE0
2A70
7FF0
F778
F97C
FDBC
FDFC
FEFC
FFF8
6FE0
ENDCHAR
STARTCHAR Amacron
ENCODING 256
SWIDTH 578 0
DWIDTH 7 0
BBX 7 11 0 0
BITMAP
0540
2FF0
39B4
7FF4
F778
F7AC
F56C
EBAC
FFEC
FFF8
6FE0
ENDCHAR
STARTCHAR amacron
ENCODING 257
SWIDTH 578 0
DWIDTH 7 0
BBX 7 11 0 0
BITMAP
0540
1FF0
29B4
7FF4
FF78
FE7C
E67C
E67C
FABC
FFF8
6FE0
ENDCHAR
STARTCHAR Abreve
ENCODING 258
SWIDTH 578 0
DWIDTH 7 0
BBX 7 12 0 0
BITMAP
0540
2FF0
3AB4
1EE0
6AA0
F778
F7AC
F56C
EBAC
FFEC
FFF8
6FE0
ENDCHAR
STARTCHAR abreve
ENCODING 259
SWIDTH 578 0
DWIDTH 7 0
BBX 7 12 0 0
BITMAP
0540
1FF0
2AB4
1EE0
6AA0
FF78
FE7C
E67C
E67C
FABC
FFF8
6FE0
ENDCHAR
STARTCHAR Aogonek
ENCODING 260
SWIDTH 578 0
DWIDTH 7 0
BBX 7 8 0 0
BITMAP
6AA0
F778
F7AC
F56C
EBAC
FFAC
FF68
6FE0
ENDCHAR
STARTCHAR aogonek
ENCODING 261
SWIDTH 578 0
DWIDTH 7 0
BBX 7 8 0 0
BITMAP
6AA0
FF78
FE7C
E67C
E67C
F9BC
FDF8
6FE0
ENDCHAR
STARTCHAR Cacute
ENCODING 262
SWIDTH 578 0
DWIDTH 7 0
BBX 7 11 0 0
BITMAP
03E0
0770
0AD0
6FE0
F7F8
EBFC
EBFC
F6BC
FABC
FFF8
6FE0
ENDCHAR
STARTCHAR cacute
ENCODING 263
SWIDTH 578 0
DWIDTH 7 0
BBX 7 11 0 0
BITMAP
03E0
07B0
0AD0
6FE0
F7F8
EBFC
EBFC
F6BC
FABC
FFF8
6FE0
ENDCHAR
STARTCHAR Ccircumflex
ENCODING 264
SWIDTH 578 0
DWIDTH 7 0
BBX 7 12 0 0
BITMAP
0100
0BC0
0DD0
1EA0
7FF0
F7F8
EBFC
EBFC
F6BC
FABC
FFF8
6FE0
ENDCHAR
STARTCHAR ccircumflex
ENCODING 265
SWIDTH 578 0
DWIDTH 7 0
BBX 7 12 0 0
BITMAP
0100
0BC0
0DD0
1BA0
7FF0
F7F8
EBFC
EBFC
F6BC
FABC
FFF8
6FE0
ENDCHAR
STARTCHAR Cdotaccent
ENCODING 266
SWIDTH 578 0
DWIDTH 7 0
BBX 7 11 0 0
BITMAP
0540
3FE0
7DF0
7FF0
F7F8
EBFC
EBFC
F6BC
FABC
FFF8
6FE0
ENDCHAR
STARTCHAR cdotaccent
ENCODING 267
SWIDTH 578 0
DWIDTH 7 0
BBX 7 11 0 0
BITMAP
0540
2FE0
3DF0
7FF0
F7F8
EBFC
EBFC
F6BC
FABC
FFF8
6FE0
ENDCHAR
STARTCHAR Ccaron
ENCODING 268
SWIDTH 578 0
DWIDTH 7 0
BBX 7 11 0 0
BITMAP
1ED0
2AA0
1DD0
7FE0
F7F8
EBFC
EBFC
F6BC
FABC
FFF8
6FE0
ENDCHAR
STARTCHAR ccaron
ENCODING 269
SWIDTH 578 0
DWIDTH 7 0
BBX 7 11 0 0
BITMAP
1ED0
2BA0
1DD0
7FF0
F7F8
EBFC
EBFC
F6BC
FABC
FFF8
6FE0
ENDCHAR
STARTCHAR Dcaron
ENCODING 270
SWIDTH 578 0
DWIDTH 7 0
BBX 7 12 0 0
BITMAP
1ED0
2AA0
1DD0
0A80
6660
F798
F7DC
F7DC
F69C
FABC
FFF8
6FE0
ENDCHAR
STARTCHAR dcaron
ENCODING 271
SWIDTH 578 0
DWIDTH 7 0
BBX 7 8 0 0
BITMAP
6690
DF58
DF7C
DF7C
DA7C
EAFC
FFF8
6FE0
ENDCHAR
STARTCHAR Dcroat
ENCODING 272
SWIDTH 578 0
DWIDTH 7 0
BBX 7 8 0 0
BITMAP
6660
F798
D6DC
F7DC
F69C
FABC
FFF8
6FE0
ENDCHAR
STARTCHAR dcroat
ENCODING 273
SWIDTH 578 0
DWIDTH 7 0
BBX 7 8 0 0
BITMAP
6660
F798
D6DC
F7DC
F69C
FABC
FFF8
6FE0
ENDCHAR
STARTCHAR Emacron
ENCODING 274
SWIDTH 578 0
DWIDTH 7 0
BBX 7 11 0 0
BITMAP
0540
1FF0
29B4
7FF4
F7F8
F6BC
F6BC
F6BC
FABC
FFF8
6FE0
ENDCHAR
STARTCHAR emacron
ENCODING 275
SWIDTH 578 0
DWIDTH 7 0
BBX 7 11 0 0
BITMAP
0540
2FE0
39B0
7FF0
EB78
E57C
EBFC
F6BC
FFFC
FFF8
6FE0
ENDCHAR
STARTCHAR Ebreve
ENCODING 276
SWIDTH 578 0
DWIDTH 7 0
BBX 7 12 0 0
BITMAP
0540
1FF0
2AB4
1EE0
6A60
F7F8
F6BC
F6BC
F6BC
FABC
FFF8
6FE0
ENDCHAR
STARTCHAR ebreve
ENCODING 277
SWIDTH 578 0
DWIDTH 7 0
BBX 7 12 0 0
BITMAP
0540
2FE0
3AB0
2EE0
6AA0
EB78
E57C
EBFC
F6BC
FFFC
FFF8
6FE0
ENDCHAR
STARTCHAR Edotaccent
ENCODING 278
SWIDTH 578 0
DWIDTH 7 0
BBX 7 12 0 0
BITMAP
0540
1FF0
2EF4
1FF0
6A60
F7F8
F6BC
F6BC
F6BC
FABC
FFF8
6FE0
ENDCHAR
STARTCHAR edotaccent
ENCODING 279
SWIDTH 578 0
DWIDTH 7 0
BBX 7 12 0 0
BITMAP
0540
2FE0
3DF0
2FE0
6AA0
EB78
E57C
EBFC
F6BC
FFFC
FFF8
6FE0
ENDCHAR
STARTCHAR Eogonek
ENCODING 280
SWIDTH 578 0
DWIDTH 7 0
BBX 7 8 0 0
BITMAP
6A60
F7F8
F6BC
F6BC
F6BC
FA7C
FF78
6FE0
ENDCHAR
STARTCHAR eogonek
ENCODING 281
SWIDTH 578 0
DWIDTH 7 0
BBX 7 8 0 0
BITMAP
6AA0
EB78
E57C
EBFC
F6BC
FDBC
FDB8
6FE0
ENDCHAR
STARTCHAR Ecaron
ENCODING 282
SWIDTH 578 0
DWIDTH 7 0
BBX 7 11 0 0
BITMAP
0AE0
1EB0
0EA0
6FF0
F7F8
F6BC
F6BC
F6BC
FABC
FFF8
6FE0
ENDCHAR
STARTCHAR ecaron
ENCODING 283
SWIDTH 578 0
DWIDTH 7 0
BBX 7 11 0 0
BITMAP
1ED0
2AA0
1DD0
7FF0
EB78
E57C
EBFC
F6BC
FFFC
FFF8
6FE0
ENDCHAR
STARTCHAR Gcircumflex
ENCODING 284
SWIDTH 578 0
DWIDTH 7 0
BBX 7 12 0 0
BITMAP
0100
0BC0
0DD0
1BA0
7FF0
F7F8
F7FC
F75C
F69C
FABC
FFF8
6FE0
ENDCHAR
STARTCHAR gcircumflex
ENCODING 285
SWIDTH 578 0
DWIDTH 7 0
BBX 7 12 0 0
BITMAP
0100
0BC0
0DD0
1BA0
7FF0
F7F8
F7FC
F75C
F69C
FABC
FFF8
6FE0
ENDCHAR
STARTCHAR Gbreve
ENCODING 286
SWIDTH 578 0
DWIDTH 7 0
BBX 7 12 0 0
BITMAP
0540
2FE0
3AB0
2EE0
6A60
F7F8
F7FC
F75C
F69C
FABC
FFF8
6FE0
ENDCHAR
STARTCHAR gbreve
ENCODING 287
SWIDTH 578 0
DWIDTH 7 0
BBX 7 12 0 0
BITMAP
0540
2FE0
3AB0
2EE0
6A60
F7F8
F7FC
F75C
F69C
FABC
FFF8
6FE0
ENDCHAR
STARTCHAR Gdotaccent
ENCODING 288
SWIDTH 578 0
DWIDTH 7 0
BBX 7 12 0 0
BITMAP
0540
2FE0
3DF0
2FE0
6A60
F7F8
F7FC
F75C
F69C
FABC
FFF8
6FE0
ENDCHAR
STARTCHAR gdotaccent
ENCODING 289
SWIDTH 578 0
DWIDTH 7 0
BBX 7 12 0 0
BITMAP
0540
2FE0
3DF0
2FE0
6A60
F7F8
F7FC
F75C
F69C
FABC
FFF8
6FE0
ENDCHAR
STARTCHAR Gcommaaccent
ENCODING 290
SWIDTH 578 0
DWIDTH 7 0
BBX 7 8 0 0
BITMAP
6A60
F7F8
F7FC
F75C
F69C
FABC
FEB8
6FE0
ENDCHAR
STARTCHAR gcommaaccent
ENCODING 291
SWIDTH 578 0
DWIDTH 7 0
BBX 7 8 0 0
BITMAP
6A60
F7F8
F7FC
F75C
F69C
FABC
FEB8
6FE0
ENDCHAR
STARTCHAR Hcircumflex
ENCODING 292
SWIDTH 578 0
DWIDTH 7 0
BBX 7 12 0 0
BITMAP
0100
0BC0
0DD0
1BA0
7FF0
F7D8
F69C
F69C
F7DC
FBEC
FFF8
6FE0
ENDCHAR
STARTCHAR hcircumflex
ENCODING 293
SWIDTH 578 0
DWIDTH 7 0
BBX 7 12 0 0
BITMAP
0100
0BC0
0D90
1EA0
7FF0
F7D8
F69C
F69C
F7DC
FBEC
FFF8
6FE0
ENDCHAR
STARTCHAR Hbar
ENCODING 294
SWIDTH 578 0
DWIDTH 7 0
BBX 7 12 0 0
BITMAP
0540
2FE0
39B0
2FE0
6BD0
F7D8
F69C
F69C
F7DC
FBEC
FFF8
6FE0
ENDCHAR
STARTCHAR hbar
ENCODING 295
SWIDTH 578 0
DWIDTH 7 0
BBX 7 8 0 0
BITMAP
6BD0
E558
F69C
F69C
F7DC
FBEC
FFF8
6FE0
ENDCHAR
STARTCHAR Itilde
ENCODING 296
SWIDTH 578 0
DWIDTH 7 0
BBX 7 12 0 0
BITMAP
0A90
2FF4
2AB4
1FB0
6A60
FDB8
FDFC
FDFC
F9BC
FABC
FFF8
6FE0
ENDCHAR
STARTCHAR itilde
ENCODING 297
SWIDTH 578 0
DWIDTH 7 0
BBX 7 12 0 0
BITMAP
0A90
2FF0
2AB4
1FB0
6A60
FDB8
FDFC
FDFC
F9BC
FABC
FFF8
6FE0
ENDCHAR
STARTCHAR Imacron
ENCODING 298
SWIDTH 578 0
DWIDTH 7 0
BBX 7 12 0 0
BITMAP
0540
2FF0
29B4
1FE0
6A60
FDB8
FDFC
FDFC
F9BC
FABC
FFF8
6FE0
ENDCHAR
STARTCHAR imacron
ENCODING 299
SWIDTH 578 0
DWIDTH 7 0
BBX 7 12 0 0
BITMAP
0540
2FF0
29B4
1FE0
6A60
FDB8
FDFC
FDFC
F9BC
FABC
FFF8
6FE0
ENDCHAR
STARTCHAR Ibreve
ENCODING 300
SWIDTH 578 0
DWIDTH 7 0
BBX 7 12 0 0
BITMAP
0540
1FF0
2EB4
1EE0
6A60
FDB8
FDFC
FDFC
F9BC
FABC
FFF8
6FE0
ENDCHAR
STARTCHAR ibreve
ENCODING 301
SWIDTH 578 0
DWIDTH 7 0
BBX 7 12 0 0
BITMAP
0540
1FF0
2EB4
1EE0
6A60
FDB8
FDFC
FDFC
F9BC
FABC
FFF8
6FE0
ENDCHAR
STARTCHAR Iogonek
ENCODING 302
SWIDTH 578 0
DWIDTH 7 0
BBX 7 8 0 0
BITMAP
6A60
FDB8
FDFC
FDFC
F9BC
FA6C
FF78
6FE0
ENDCHAR
STARTCHAR iogonek
ENCODING 303
SWIDTH 578 0
DWIDTH 7 0
BBX 7 8 0 0
BITMAP
6A60
FDB8
FDFC
FDFC
F9BC
FA6C
FF78
6FE0
ENDCHAR
STARTCHAR Idotaccent
ENCODING 304
SWIDTH 578 0
DWIDTH 7 0
BBX 7 12 0 0
BITMAP
0540
2FE0
3DF0
2FE0
6A60
FDB8
FDFC
FDFC
F9BC
FABC
FFF8
6FE0
ENDCHAR
STARTCHAR dotlessi
ENCODING 305
SWIDTH 578 0
DWIDTH 7 0
BBX 7 8 0 0
BITMAP
6A60
FDB8
FDFC
FDFC
F9BC
FABC
FFF8
6FE0
ENDCHAR
STARTCHAR IJ
ENCODING 306
SWIDTH 578 0
DWIDTH 7 0
BBX 7 8 0 0
BITMAP
56D0
F7D8
F7DC
F7DC
E69C
EABC
FFF8
6FE0
ENDCHAR
STARTCHAR ij
ENCODING 307
SWIDTH 578 0
DWIDTH 7 0
BBX 7 8 0 0
BITMAP
56D0
F7D8
F7DC
F7DC
E69C
EABC
FFF8
6FE0
ENDCHAR
STARTCHAR Jcircumflex
ENCODING 308
SWIDTH 578 0
DWIDTH 7 0
BBX 7 12 0 0
BITMAP
0100
0BC0
0D90
1EA0
7FF0
FF78
FF7C
FF7C
FE7C
FEFC
FFF8
6FE0
ENDCHAR
STARTCHAR jcircumflex
ENCODING 309
SWIDTH 578 0
DWIDTH 7 0
BBX 7 12 0 0
BITMAP
0100
0BC0
0D90
1EA0
7FF0
FF78
FF7C
FF7C
FE7C
FEFC
FFF8
6FE0
ENDCHAR
STARTCHAR Kcommaaccent
ENCODING 310
SWIDTH 578 0
DWIDTH 7 0
BBX 7 8 0 0
BITMAP
6BD0
F768
F5BC
F5BC
F76C
FBEC
FEB8
6FE0
ENDCHAR
STARTCHAR kcommaaccent
ENCODING 311
SWIDTH 578 0
DWIDTH 7 0
BBX 7 8 0 0
BITMAP
6BD0
F768
F5BC
F5BC
F76C
FBEC
FEB8
6FE0
ENDCHAR
STARTCHAR kgreenlandic
ENCODING 312
SWIDTH 578 0
DWIDTH 7 0
BBX 7 8 0 0
BITMAP
6BD0
F768
F5BC
F5BC
F76C
FBEC
FFF8
6FE0
ENDCHAR
STARTCHAR Lacute
ENCODING 313
SWIDTH 578 0
DWIDTH 7 0
BBX 7 12 0 0
BITMAP
0B80
0DD0
1E80
0F40
6BE0
FAF8
FAFC
FAFC
FABC
FEBC
FFF8
6FE0
ENDCHAR
STARTCHAR lacute
ENCODING 314
SWIDTH 578 0
DWIDTH 7 0
BBX 7 12 0 0
BITMAP
0B80
0DD0
1E80
0F40
6BE0
FAF8
FAFC
FAFC
FABC
FEBC
FFF8
6FE0
ENDCHAR
STARTCHAR Lcommaaccent
ENCODING 315
SWIDTH 578 0
DWIDTH 7 0
BBX 7 8 0 0
BITMAP
6BE0
FAF8
FAFC
FAFC
FABC
FEBC
FEB8
6FE0
ENDCHAR
STARTCHAR lcommaaccent
ENCODING 316
SWIDTH 578 0
DWIDTH 7 0
BBX 7 8 0 0
BITMAP
6BE0
FAF8
FAFC
FAFC
FABC
FEBC
FEB8
6FE0
ENDCHAR
STARTCHAR Lcaron
ENCODING 317
SWIDTH 578 0
DWIDTH 7 0
BBX 7 8 0 0
BITMAP
6BA0
FA78
FAFC
FAFC
FABC
FEBC
FFF8
6FE0
ENDCHAR
STARTCHAR lcaron
ENCODING 318
SWIDTH 578 0
DWIDTH 7 0
BBX 7 8 0 0
BITMAP
6BA0
FA78
FAFC
FAFC
FABC
FEBC
FFF8
6FE0
ENDCHAR
STARTCHAR Ldot
ENCODING 319
SWIDTH 578 0
DWIDTH 7 0
BBX 7 8 0 0
BITMAP
6BE0
FAF8
FABC
FAFC
FABC
FEBC
FFF8
6FE0
ENDCHAR
STARTCHAR ldot
ENCODING 320
SWIDTH 578 0
DWIDTH 7 0
BBX 7 8 0 0
BITMAP
6BE0
FAF8
FABC
FAFC
FABC
FEBC
FFF8
6FE0
ENDCHAR
STARTCHAR Lslash
ENCODING 321
SWIDTH 578 0
DWIDTH 7 0
BBX 7 8 0 0
BITMAP
6BE0
FAF8
F9FC
F6FC
FABC
FEBC
FFF8
6FE0
ENDCHAR
STARTCHAR lslash
ENCODING 322
SWIDTH 578 0
DWIDTH 7 0
BBX 7 8 0 0
BITMAP
6BE0
FAF8
F9FC
F6FC
FABC
FEBC
FFF8
6FE0
ENDCHAR
STARTCHAR Nacute
ENCODING 323
SWIDTH 578 0
DWIDTH 7 0
BBX 7 12 0 0
BITMAP
07D0
0AA0
0ED0
0B80
6AA0
F7A8
F7AC
F7AC
F7AC
FBFC
FFF8
6FE0
ENDCHAR
STARTCHAR nacute
ENCODING 324
SWIDTH 578 0
DWIDTH 7 0
BBX 7 12 0 0
BITMAP
07D0
0AA0
0ED0
0B80
6AA0
F7A8
F7AC
F7AC
F7AC
FBFC
FFF8
6FE0
ENDCHAR
STARTCHAR Ncommaaccent
ENCODING 325
SWIDTH 578 0
DWIDTH 7 0
BBX 7 8 0 0
BITMAP
6AA0
F7A8
F7AC
F7AC
F7AC
FBFC
FEB8
6FE0
ENDCHAR
STARTCHAR ncommaaccent
ENCODING 326
SWIDTH 578 0
DWIDTH 7 0
BBX 7 8 0 0
BITMAP
6AA0
F7A8
F7AC
F7AC
F7AC
FBFC
FEB8
6FE0
ENDCHAR
STARTCHAR Ncaron
ENCODING 327
SWIDTH 578 0
DWIDTH 7 0
BBX 7 11 0 0
BITMAP
1ED0
2AA0
1DD0
7FE0
F7A8
F7AC
F7AC
F7AC
FBFC
FFF8
6FE0
ENDCHAR
STARTCHAR ncaron
ENCODING 328
SWIDTH 578 0
DWIDTH 7 0
BBX 7 11 0 0
BITMAP
1ED0
2AA0
1DD0
7FE0
F7A8
F7AC
F7AC
F7AC
FBFC
FFF8
6FE0
ENDCHAR
STARTCHAR napostrophe
ENCODING 329
SWIDTH 578 0
DWIDTH 7 0
BBX 7 8 0 0
BITMAP
6AA0
97A8
E7AC
F7AC
F7AC
FBFC
FFF8
6FE0
ENDCHAR
STARTCHAR Eng
ENCODING 330
SWIDTH 578 0
DWIDTH 7 0
BBX 7 8 0 0
BITMAP
6AA0
F7A8
F7AC
F7AC
F7AC
FBAC
FE68
6FE0
ENDCHAR
STARTCHAR eng
ENCODING 331
SWIDTH 578 0
DWIDTH 7 0
BBX 7 8 0 0
BITMAP
6AA0
F7A8
F7AC
F7AC
F7AC
FBAC
FE68
6FE0
ENDCHAR
STARTCHAR Omacron
ENCODING 332
SWIDTH 578 0
DWIDTH 7 0
BBX 7 12 0 0
BITMAP
0540
2FF0
29B4
1FE0
6A60
F798
F7DC
F7DC
F69C
FABC
FFF8
6FE0
ENDCHAR
STARTCHAR omacron
ENCODING 333
SWIDTH 578 0
DWIDTH 7 0
BBX 7 12 0 0
BITMAP
0540
2FF0
29B4
1FE0
6A60
F798
F7DC
F7DC
F69C
FABC
FFF8
6FE0
ENDCHAR
STARTCHAR Obreve
ENCODING 334
SWIDTH 578 0
DWIDTH 7 0
BBX 7 12 0 0
BITMAP
0540
2FF0
2AB4
1EE0
6A60
F798
F7DC
F7DC
F69C
FABC
FFF8
6FE0
ENDCHAR
STARTCHAR obreve
ENCODING 335
SWIDTH 578 0
DWIDTH 7 0
BBX 7 12 0 0
BITMAP
0540
2FF0
2AB4
1EE0
6A60
F798
F7DC
F7DC
F69C
FABC
FFF8
6FE0
ENDCHAR
STARTCHAR Ohungarumlaut
ENCODING 336
SWIDTH 578 0
DWIDTH 7 0
BBX 7 11 0 0
BITMAP
03F4
06A8
0EB4
7FF0
F798
F7DC
F7DC
F69C
FABC
FFF8
6FE0
ENDCHAR
STARTCHAR ohungarumlaut
ENCODING 337
SWIDTH 578 0
DWIDTH 7 0
BBX 7 11 0 0
BITMAP
03F4
06A8
0EB4
7FF0
F798
F7DC
F7DC
F69C
FABC
FFF8
6FE0
ENDCHAR
STARTCHAR OE
ENCODING 338
SWIDTH 578 0
DWIDTH 7 0
BBX 7 8 0 0
BITMAP
6650
DDB8
DDAC
DDBC
D9AC
FAAC
FFF8
6FE0
ENDCHAR
STARTCHAR oe
ENCODING 339
SWIDTH 578 0
DWIDTH 7 0
BBX 7 8 0 0
BITMAP
6650
DDB8
DDAC
DDBC
D9AC
FAAC
FFF8
6FE0
ENDCHAR
STARTCHAR Racute
ENCODING 340
SWIDTH 578 0
DWIDTH 7 0
BBX 7 11 0 0
BITMAP
07D0
0AA0
0ED0
6FE0
F768
F67C
F67C
F7AC
FBFC
FFF8
6FE0
ENDCHAR
STARTCHAR racute
ENCODING 341
SWIDTH 578 0
DWIDTH 7 0
BBX 7 11 0 0
BITMAP
07D0
0AA0
0ED0
6FE0
F768
F67C
F67C
F7AC
FBFC
FFF8
6FE0
ENDCHAR
STARTCHAR Rcommaaccent
ENCODING 342
SWIDTH 578 0
DWIDTH 7 0
BBX 7 8 0 0
BITMAP
66A0
F768
F67C
F67C
F7AC
FBFC
FEB8
6FE0
ENDCHAR
STARTCHAR rcommaaccent
ENCODING 343
SWIDTH 578 0
DWIDTH 7 0
BBX 7 8 0 0
BITMAP
66A0
F768
F67C
F67C
F7AC
FBFC
FEB8
6FE0
ENDCHAR
STARTCHAR Rcaron
ENCODING 344
SWIDTH 578 0
DWIDTH 7 0
BBX 7 11 0 0
BITMAP
1ED0
2AA0
1DD0
7FE0
F768
F67C
F67C
F7AC
FBFC
FFF8
6FE0
ENDCHAR
STARTCHAR rcaron
ENCODING 345
SWIDTH 578 0
DWIDTH 7 0
BBX 7 11 0 0
BITMAP
1ED0
2AA0
1DD0
7FE0
F768
F67C
F67C
F7AC
FBFC
FFF8
6FE0
ENDCHAR
STARTCHAR Sacute
ENCODING 346
SWIDTH 578 0
DWIDTH 7 0
BBX 7 11 0 0
BITMAP
03E0
0770
0AD0
6FE0
F7F8
F6BC
FEAC
FAAC
FABC
FFF8
6FE0
ENDCHAR
STARTCHAR sacute
ENCODING 347
SWIDTH 578 0
DWIDTH 7 0
BBX 7 11 0 0
BITMAP
03E0
0770
0AD0
6FE0
F7F8
F6BC
FEAC
FAAC
FABC
FFF8
6FE0
ENDCHAR
STARTCHAR Scircumflex
ENCODING 348
SWIDTH 578 0
DWIDTH 7 0
BBX 7 12 0 0
BITMAP
0100
07C0
0EA0
1EB0
7FF0
F7F8
F6BC
FEAC
FAAC
FABC
FFF8
6FE0
ENDCHAR
STARTCHAR scircumflex
ENCODING 349
SWIDTH 578 0
DWIDTH 7 0
BBX 7 12 0 0
BITMAP
0100
07C0
0EA0
1EB0
7FF0
F7F8
F6BC
FEAC
FAAC
FABC
FFF8
6FE0
ENDCHAR
STARTCHAR Scedilla
ENCODING 350
SWIDTH 578 0
DWIDTH 7 0
BBX 7 8 0 0
BITMAP
6A60
F7F8
F6BC
FEAC
FAAC
F8BC
FDF8
6FE0
ENDCHAR
STARTCHAR scedilla
ENCODING 351
SWIDTH 578 0
DWIDTH 7 0
BBX 7 8 0 0
BITMAP
6A60
F7F8
F6BC
FEAC
FAAC
F8BC
FDF8
6FE0
ENDCHAR
STARTCHAR Scaron
ENCODING 352
SWIDTH 578 0
DWIDTH 7 0
BBX 7 11 0 0
BITMAP
0AE0
1EB0
0EA0
6FF0
F7F8
F6BC
FEAC
FAAC
FABC
FFF8
6FE0
ENDCHAR
STARTCHAR scaron
ENCODING 353
SWIDTH 578 0
DWIDTH 7 0
BBX 7 11 0 0
BITMAP
0AE0
1EB0
0EA0
6FF0
F7F8
F6BC
FEAC
FAAC
FABC
FFF8
6FE0
ENDCHAR
STARTCHAR Tcommaaccent
ENCODING 354
SWIDTH 578 0
DWIDTH 7 0
BBX 7 8 0 0
BITMAP
6A60
FDB8
FDFC
FDFC
FDFC
FEFC
FEB8
6FE0
ENDCHAR
STARTCHAR tcommaaccent
ENCODING 355
SWIDTH 578 0
DWIDTH 7 0
BBX 7 8 0 0
BITMAP
6A60
FDB8
FDFC
FDFC
FDFC
FEFC
FEB8
6FE0
ENDCHAR
STARTCHAR Tcaron
ENCODING 356
SWIDTH 578 0
DWIDTH 7 0
BBX 7 11 0 0
BITMAP
1EE0
1EA0
1DA0
6FE0
FDB8
FDFC
FDFC
FDFC
FEFC
FFF8
6FE0
ENDCHAR
STARTCHAR tcaron
ENCODING 357
SWIDTH 578 0
DWIDTH 7 0
BBX 7 8 0 0
BITMAP
6A60
FDA8
FDAC
FDFC
FDFC
FEFC
FFF8
6FE0
ENDCHAR
STARTCHAR Tbar
ENCODING 358
SWIDTH 578 0
DWIDTH 7 0
BBX 7 8 0 0
BITMAP
6A60
FDB8
FDBC
FDBC
FDFC
FEFC
FFF8
6FE0
ENDCHAR
STARTCHAR tbar
ENCODING 359
SWIDTH 578 0
DWIDTH 7 0
BBX 7 8 0 0
BITMAP
6A60
FDB8
FDBC
FDBC
FDFC
FEFC
FFF8
6FE0
ENDCHAR
STARTCHAR Utilde
ENCODING 360
SWIDTH 578 0
DWIDTH 7 0
BBX 7 12 0 0
BITMAP
0A90
2FF0
2AB4
1FB0
6BD0
FBD8
FBDC
FBDC
F69C
FABC
FFF8
6FE0
ENDCHAR
STARTCHAR utilde
ENCODING 361
SWIDTH 578 0
DWIDTH 7 0
BBX 7 12 0 0
BITMAP
0A90
2FF0
2AB4
1FB0
6BD0
FBD8
FBDC
FBDC
F69C
FABC
FFF8
6FE0
ENDCHAR
STARTCHAR Umacron
ENCODING 362
SWIDTH 578 0
DWIDTH 7 0
BBX 7 12 0 0
BITMAP
0540
1FF0
2974
1FE0
6BD0
FBD8
FBDC
FBDC
F69C
FABC
FFF8
6FE0
ENDCHAR
STARTCHAR umacron
ENCODING 363
SWIDTH 578 0
DWIDTH 7 0
BBX 7 12 0 0
BITMAP
0540
1FF0
2974
1FE0
6BD0
FBD8
FBDC
FBDC
F69C
FABC
FFF8
6FE0
ENDCHAR
STARTCHAR Ubreve
ENCODING 364
SWIDTH 578 0
DWIDTH 7 0
BBX 7 12 0 0
BITMAP
0540
1FF0
2AB4
1EE0
6BD0
FBD8
FBDC
FBDC
F69C
FABC
FFF8
6FE0
ENDCHAR
STARTCHAR ubreve
ENCODING 365
SWIDTH 578 0
DWIDTH 7 0
BBX 7 12 0 0
BITMAP
0540
1FF0
2EB4
1EE0
6BD0
FBD8
FBDC
FBDC
F69C
FABC
FFF8
6FE0
ENDCHAR
STARTCHAR Uring
ENCODING 366
SWIDTH 578 0
DWIDTH 7 0
BBX 7 12 0 0
BITMAP
0680
1EA0
1A70
1FE0
6BD0
FBD8
FBDC
FBDC
F69C
FABC
FFF8
6FE0
ENDCHAR
STARTCHAR uring
ENCODING 367
SWIDTH 578 0
DWIDTH 7 0
BBX 7 12 0 0
BITMAP
0680
1EA0
1A70
1FE0
6BD0
FBD8
FBDC
FBDC
F69C
FABC
FFF8
6FE0
ENDCHAR
STARTCHAR Uhungarumlaut
ENCODING 368
SWIDTH 581 0
DWIDTH 7 0
BBX 7 11 0 0
BITMAP
03F4
06AC
0EB4
6FF0
FBD8
FBDC
FBDC
F69C
FABC
FFF8
6FE0
ENDCHAR
STARTCHAR uhungarumlaut
ENCODING 369
SWIDTH 582 0
DWIDTH 7 0
BBX 7 11 0 0
BITMAP
03F4
07AC
0EB4
6FF0
FBD8
FBDC
FBDC
F69C
FABC
FFF8
6FE0
ENDCHAR
STARTCHAR Uogonek
ENCODING 370
SWIDTH 578 0
DWIDTH 7 0
BBX 7 8 0 0
BITMAP
6BD0
FBD8
FBDC
FBDC
F69C
F9BC
FDF8
6FE0
ENDCHAR
STARTCHAR uogonek
ENCODING 371
SWIDTH 578 0
DWIDTH 7 0
BBX 7 8 0 0
BITMAP
6BD0
FBD8
FBDC
FBDC
F69C
F9BC
FDF8
6FE0
ENDCHAR
STARTCHAR Wcircumflex
ENCODING 372
SWIDTH 578 0
DWIDTH 7 0
BBX 7 12 0 0
BITMAP
0100
0BC0
0DD0
1BA0
6FF0
DDD8
DC9C
E99C
E65C
FBBC
FFF8
6FE0
ENDCHAR
STARTCHAR wcircumflex
ENCODING 373
SWIDTH 578 0
DWIDTH 7 0
BBX 7 12 0 0
BITMAP
0100
0BC0
0DD0
1BA0
6FF0
DDD8
DC9C
E99C
E65C
FBBC
FFF8
6FE0
ENDCHAR
STARTCHAR Ycircumflex
ENCODING 374
SWIDTH 578 0
DWIDTH 7 0
BBX 7 12 0 0
BITMAP
0100
0BC0
0D90
1EA0
7FF0
F778
F97C
FDBC
FDFC
FEFC
FFF8
6FE0
ENDCHAR
STARTCHAR ycircumflex
ENCODING 375
SWIDTH 578 0
DWIDTH 7 0
BBX 7 12 0 0
BITMAP
0100
0BC0
0D90
1EA0
7FF0
F778
F97C
FDBC
FDFC
FEFC
FFF8
6FE0
ENDCHAR
STARTCHAR Ydieresis
ENCODING 376
SWIDTH 578 0
DWIDTH 7 0
BBX 7 11 0 0
BITMAP
0540
1FE0
2A70
7FF0
F778
F97C
FDBC
FDFC
FEFC
FFF8
6FE0
ENDCHAR
STARTCHAR Zacute
ENCODING 377
SWIDTH 578 0
DWIDTH 7 0
BBX 7 12 0 0
BITMAP
07D0
0DD0
0EC0
0B40
6AA0
FF78
FEBC
FDFC
F6BC
FABC
FFF8
6FE0
ENDCHAR
STARTCHAR zacute
ENCODING 378
SWIDTH 578 0
DWIDTH 7 0
BBX 7 12 0 0
BITMAP
07D0
0DD0
0EC0
0B40
6AA0
FF78
FEBC
FDFC
F6BC
FABC
FFF8
6FE0
ENDCHAR
STARTCHAR Zdotaccent
ENCODING 379
SWIDTH 578 0
DWIDTH 7 0
BBX 7 12 0 0
BITMAP
0540
2FE0
3DF0
2FE0
6AA0
FF78
FEBC
FDFC
F6BC
FABC
FFF8
6FE0
ENDCHAR
STARTCHAR zdotaccent
ENCODING 380
SWIDTH 578 0
DWIDTH 7 0
BBX 7 12 0 0
BITMAP
0540
2FE0
3DF0
2FE0
6AA0
FF78
FEBC
FDFC
F6BC
FABC
FFF8
6FE0
ENDCHAR
STARTCHAR Zcaron
ENCODING 381
SWIDTH 578 0
DWIDTH 7 0
BBX 7 11 0 0
BITMAP
1ED0
2AA0
1DD0
6FF0
FF78
FEBC
FDFC
F6BC
FABC
FFF8
6FE0
ENDCHAR
STARTCHAR zcaron
ENCODING 382
SWIDTH 578 0
DWIDTH 7 0
BBX 7 11 0 0
BITMAP
1ED0
2AA0
1DD0
6FF0
FF78
FEBC
FDFC
F6BC
FABC
FFF8
6FE0
ENDCHAR
STARTCHAR longs
ENCODING 383
SWIDTH 578 0
DWIDTH 7 0
BBX 7 8 0 0
BITMAP
6FE0
F678
EBEC
FAAC
FEFC
FFFC
FFF8
6FE0
ENDCHAR
STARTCHAR florin
ENCODING 402
SWIDTH 578 0
DWIDTH 7 0
BBX 7 8 0 0
BITMAP
6EA0
FDF8
F9FC
FDFC
FDFC
FDFC
FBF8
6FE0
ENDCHAR
STARTCHAR uni01CD
ENCODING 461
SWIDTH 578 0
DWIDTH 7 0
BBX 7 11 0 0
BITMAP
1EE0
1EA0
1DE0
6FF0
F778
F7AC
F56C
EBAC
FFEC
FFF8
6FE0
ENDCHAR
STARTCHAR uni01CE
ENCODING 462
SWIDTH 578 0
DWIDTH 7 0
BBX 7 11 0 0
BITMAP
0AE0
1EB0
0EA0
6FF0
FF78
FE7C
E67C
E67C
FABC
FFF8
6FE0
ENDCHAR
STARTCHAR uni01CF
ENCODING 463
SWIDTH 578 0
DWIDTH 7 0
BBX 7 11 0 0
BITMAP
0AE0
1EB0
0EA0
6FF0
FDB8
FDFC
FDFC
F9BC
FABC
FFF8
6FE0
ENDCHAR
STARTCHAR uni01D0
ENCODING 464
SWIDTH 578 0
DWIDTH 7 0
BBX 7 11 0 0
BITMAP
0AE0
1EB0
0EA0
6FF0
FDB8
FDFC
FDFC
F9BC
FABC
FFF8
6FE0
ENDCHAR
STARTCHAR uni01D1
ENCODING 465
SWIDTH 578 0
DWIDTH 7 0
BBX 7 11 0 0
BITMAP
0AE0
1EB0
0EA0
6FF0
F798
F7DC
F7DC
F69C
FABC
FFF8
6FE0
ENDCHAR
STARTCHAR uni01D3
ENCODING 467
SWIDTH 578 0
DWIDTH 7 0
BBX 7 11 0 0
BITMAP
0AE0
1EB0
0EA0
6FE0
FBD8
FBDC
FBDC
F69C
FABC
FFF8
6FE0
ENDCHAR
STARTCHAR uni01D4
ENCODING 468
SWIDTH 578 0
DWIDTH 7 0
BBX 7 11 0 0
BITMAP
0AE0
1EB0
0EA0
6FE0
FBD8
FBDC
FBDC
F69C
FABC
FFF8
6FE0
ENDCHAR
STARTCHAR uni0200
ENCODING 512
SWIDTH 578 0
DWIDTH 7 0
BBX 7 11 0 0
BITMAP
3F40
6AC0
3BD0
7FF0
F778
F7AC
F56C
EBAC
FFEC
FFF8
6FE0
ENDCHAR
STARTCHAR uni0201
ENCODING 513
SWIDTH 578 0
DWIDTH 7 0
BBX 7 11 0 0
BITMAP
3F40
6AC0
3BD0
7FF0
FF78
FE7C
E67C
E67C
FABC
FFF8
6FE0
ENDCHAR
STARTCHAR uni0202
ENCODING 514
SWIDTH 578 0
DWIDTH 7 0
BBX 7 11 0 0
BITMAP
1FE0
3EB4
2BB0
7FF0
F778
F7AC
F56C
EBAC
FFEC
FFF8
6FE0
ENDCHAR
STARTCHAR uni0203
ENCODING 515
SWIDTH 578 0
DWIDTH 7 0
BBX 7 11 0 0
BITMAP
1FE0
3EB4
2BB0
7FF0
FF78
FE7C
E67C
E67C
FABC
FFF8
6FE0
ENDCHAR
STARTCHAR uni0204
ENCODING 516
SWIDTH 578 0
DWIDTH 7 0
BBX 7 11 0 0
BITMAP
3F40
6AC0
3BD0
7FF0
F7F8
F6BC
F6BC
F6BC
FABC
FFF8
6FE0
ENDCHAR
STARTCHAR uni0205
ENCODING 517
SWIDTH 578 0
DWIDTH 7 0
BBX 7 11 0 0
BITMAP
3F40
6AC0
3BD0
7FF0
EB78
E57C
EBFC
F6BC
FFFC
FFF8
6FE0
ENDCHAR
STARTCHAR uni0206
ENCODING 518
SWIDTH 578 0
DWIDTH 7 0
BBX 7 11 0 0
BITMAP
1FE0
3EB4
2BB0
7FE0
F7F8
F6BC
F6BC
F6BC
FABC
FFF8
6FE0
ENDCHAR
STARTCHAR uni0207
ENCODING 519
SWIDTH 578 0
DWIDTH 7 0
BBX 7 11 0 0
BITMAP
1FE0
3EB4
2BB0
6FF0
EB78
E57C
EBFC
F6BC
FFFC
FFF8
6FE0
ENDCHAR
STARTCHAR uni0208
ENCODING 520
SWIDTH 578 0
DWIDTH 7 0
BBX 7 11 0 0
BITMAP
3F40
6AC0
3BD0
7FF0
FDB8
FDFC
FDFC
F9BC
FABC
FFF8
6FE0
ENDCHAR
STARTCHAR uni0209
ENCODING 521
SWIDTH 578 0
DWIDTH 7 0
BBX 7 11 0 0
BITMAP
3F40
6AC0
3BD0
7FF0
FDB8
FDFC
FDFC
F9BC
FABC
FFF8
6FE0
ENDCHAR
STARTCHAR uni020A
ENCODING 522
SWIDTH 578 0
DWIDTH 7 0
BBX 7 11 0 0
BITMAP
1FE0
3EB4
2BB0
7FE0
FDB8
FDFC
FDFC
F9BC
FABC
FFF8
6FE0
ENDCHAR
STARTCHAR uni020B
ENCODING 523
SWIDTH 578 0
DWIDTH 7 0
BBX 7 11 0 0
BITMAP
1FE0
3EB4
2BB0
7FE0
FDB8
FDFC
FDFC
F9BC
FABC
FFF8
6FE0
ENDCHAR
STARTCHAR uni020C
ENCODING 524
SWIDTH 578 0
DWIDTH 7 0
BBX 7 11 0 0
BITMAP
3F40
6AC0
3BD0
7FF0
F798
F7DC
F7DC
F69C
FABC
FFF8
6FE0
ENDCHAR
STARTCHAR uni020D
ENCODING 525
SWIDTH 578 0
DWIDTH 7 0
BBX 7 11 0 0
BITMAP
3F40
6AC0
3BD0
7FF0
F798
F7DC
F7DC
F69C
FABC
FFF8
6FE0
ENDCHAR
STARTCHAR uni020E
ENCODING 526
SWIDTH 578 0
DWIDTH 7 0
BBX 7 11 0 0
BITMAP
1FE0
3EB4
2BB0
7FE0
F798
F7DC
F7DC
F69C
FABC
FFF8
6FE0
ENDCHAR
STARTCHAR uni020F
ENCODING 527
SWIDTH 578 0
DWIDTH 7 0
BBX 7 11 0 0
BITMAP
1FE0
3EB4
2BB0
7FE0
F798
F7DC
F7DC
F69C
FABC
FFF8
6FE0
ENDCHAR
STARTCHAR uni0210
ENCODING 528
SWIDTH 578 0
DWIDTH 7 0
BBX 7 11 0 0
BITMAP
3F40
6AC0
3BD0
7FF0
F768
F67C
F67C
F7AC
FBFC
FFF8
6FE0
ENDCHAR
STARTCHAR uni0211
ENCODING 529
SWIDTH 578 0
DWIDTH 7 0
BBX 7 11 0 0
BITMAP
3F40
6AC0
3BD0
7FF0
F768
F67C
F67C
F7AC
FBFC
FFF8
6FE0
ENDCHAR
STARTCHAR uni0212
ENCODING 530
SWIDTH 578 0
DWIDTH 7 0
BBX 7 11 0 0
BITMAP
1FE0
3EB4
2BB0
7FF0
F768
F67C
F67C
F7AC
FBFC
FFF8
6FE0
ENDCHAR
STARTCHAR uni0213
ENCODING 531
SWIDTH 578 0
DWIDTH 7 0
BBX 7 11 0 0
BITMAP
1FE0
3EB4
2BB0
7FF0
F768
F67C
F67C
F7AC
FBFC
FFF8
6FE0
ENDCHAR
STARTCHAR uni0214
ENCODING 532
SWIDTH 578 0
DWIDTH 7 0
BBX 7 11 0 0
BITMAP
3F40
6AC0
3BD0
7FF0
FBD8
FBDC
FBDC
F69C
FABC
FFF8
6FE0
ENDCHAR
STARTCHAR uni0215
ENCODING 533
SWIDTH 578 0
DWIDTH 7 0
BBX 7 11 0 0
BITMAP
3F40
6AC0
3BD0
7FF0
FBD8
FBDC
FBDC
F69C
FABC
FFF8
6FE0
ENDCHAR
STARTCHAR uni0216
ENCODING 534
SWIDTH 578 0
DWIDTH 7 0
BBX 7 11 0 0
BITMAP
1FE0
3EB4
2BB0
6FE0
FBD8
FBDC
FBDC
F69C
FABC
FFF8
6FE0
ENDCHAR
STARTCHAR uni0217
ENCODING 535
SWIDTH 578 0
DWIDTH 7 0
BBX 7 11 0 0
BITMAP
1FE0
3EB4
2BB0
6FE0
FBD8
FBDC
FBDC
F69C
FABC
FFF8
6FE0
ENDCHAR
STARTCHAR uni0218
ENCODING 536
SWIDTH 578 0
DWIDTH 7 0
BBX 7 8 0 0
BITMAP
6A60
F7F8
F6BC
FEAC
FAAC
F9BC
FDF8
6FE0
ENDCHAR
STARTCHAR uni0219
ENCODING 537
SWIDTH 578 0
DWIDTH 7 0
BBX 7 8 0 0
BITMAP
6A60
F7F8
F6BC
FEAC
FAAC
F9BC
FDF8
6FE0
ENDCHAR
STARTCHAR uni021A
ENCODING 538
SWIDTH 578 0
DWIDTH 7 0
BBX 7 8 0 0
BITMAP
6A60
FDB8
FDFC
FDFC
FDFC
FEFC
FEB8
6FE0
ENDCHAR
STARTCHAR uni021B
ENCODING 539
SWIDTH 578 0
DWIDTH 7 0
BBX 7 8 0 0
BITMAP
6A60
FDB8
FDFC
FDFC
FDFC
FEFC
FEB8
6FE0
ENDCHAR
STARTCHAR circumflex
ENCODING 710
SWIDTH 355 0
DWIDTH 4 0
BBX 5 5 0 0
BITMAP
0400
7D00
AB00
EB40
AA00
ENDCHAR
STARTCHAR caron
ENCODING 711
SWIDTH 355 0
DWIDTH 4 0
BBX 5 4 0 0
BITMAP
BB00
EB40
AB00
6A00
ENDCHAR
STARTCHAR breve
ENCODING 728
SWIDTH 428 0
DWIDTH 5 0
BBX 5 4 0 0
BITMAP
1500
BF80
EAC0
BB80
ENDCHAR
STARTCHAR dotaccent
ENCODING 729
SWIDTH 428 0
DWIDTH 5 0
BBX 5 4 0 0
BITMAP
1500
BF80
F7C0
BF80
ENDCHAR
STARTCHAR ring
ENCODING 730
SWIDTH 368 0
DWIDTH 4 0
BBX 5 4 0 0
BITMAP
2900
AB40
DB40
BF40
ENDCHAR
STARTCHAR ogonek
ENCODING 731
SWIDTH 101 0
DWIDTH 1 0
BBX 1 2 0 -2
BITMAP
80
80
ENDCHAR
STARTCHAR tilde
ENCODING 732
SWIDTH 428 0
DWIDTH 5 0
BBX 5 4 0 0
BITMAP
2A40
BFC0
EAC0
BF80
ENDCHAR
STARTCHAR hungarumlaut
ENCODING 733
SWIDTH 419 0
DWIDTH 5 0
BBX 5 4 0 0
BITMAP
2F40
7AC0
EB40
AA00
ENDCHAR
STARTCHAR uni030F
ENCODING 783
SWIDTH 419 0
DWIDTH 5 0
BBX 5 4 0 0
BITMAP
7E00
EB40
7AC0
2A80
ENDCHAR
STARTCHAR mu
ENCODING 956
SWIDTH 578 0
DWIDTH 7 0
BBX 7 8 0 0
BITMAP
6BD0
FBD8
FBDC
FBDC
F69C
F6BC
FFF8
6FE0
ENDCHAR
STARTCHAR pi
ENCODING 960
SWIDTH 578 0
DWIDTH 7 0
BBX 7 8 0 0
BITMAP
6AA0
EAA8
EBA8
E678
EBAC
FAAC
FFF8
6FE0
ENDCHAR
STARTCHAR uni1E60
ENCODING 7776
SWIDTH 578 0
DWIDTH 7 0
BBX 7 11 0 0
BITMAP
0540
1FF0
2EF4
7FF4
F7F8
F6BC
FEAC
FAAC
FABC
FFF8
6FE0
ENDCHAR
STARTCHAR uni1E8E
ENCODING 7822
SWIDTH 578 0
DWIDTH 7 0
BBX 7 11 0 0
BITMAP
0540
2FF0
2EF4
7FF4
F778
F97C
FDBC
FDFC
FEFC
FFF8
6FE0
ENDCHAR
STARTCHAR uni1E8F
ENCODING 7823
SWIDTH 578 0
DWIDTH 7 0
BBX 7 11 0 0
BITMAP
0540
2FF0
2EF4
7FF4
F778
F97C
FDBC
FDFC
FEFC
FFF8
6FE0
ENDCHAR
STARTCHAR uni1EBC
ENCODING 7868
SWIDTH 578 0
DWIDTH 7 0
BBX 7 12 0 0
BITMAP
0A90
2FF0
2AB4
1FB0
6A60
F7F8
F6BC
F6BC
F6BC
FABC
FFF8
6FE0
ENDCHAR
STARTCHAR uni1EF8
ENCODING 7928
SWIDTH 578 0
DWIDTH 7 0
BBX 7 12 0 0
BITMAP
0A90
2FF0
2AB4
1FB0
6BA0
F778
F97C
FDBC
FDFC
FEFC
FFF8
6FE0
ENDCHAR
STARTCHAR uni1EF9
ENCODING 7929
SWIDTH 578 0
DWIDTH 7 0
BBX 7 12 0 0
BITMAP
0A90
2FF0
2AB4
1FB0
6BA0
F778
F97C
FDBC
FDFC
FEFC
FFF8
6FE0
ENDCHAR
STARTCHAR endash
ENCODING 8211
SWIDTH 428 0
DWIDTH 5 0
BBX 5 8 0 0
BITMAP
6F40
FFC0
E6C0
FFC0
FFC0
FFC0
FFC0
6E40
ENDCHAR
STARTCHAR emdash
ENCODING 8212
SWIDTH 428 0
DWIDTH 5 0
BBX 5 8 0 0
BITMAP
6F40
FFC0
5540
FFC0
FFC0
FFC0
FFC0
6E40
ENDCHAR
STARTCHAR quoteleft
ENCODING 8216
SWIDTH 428 0
DWIDTH 5 0
BBX 5 8 0 0
BITMAP
6B40
F7C0
FFC0
FFC0
FFC0
FFC0
FFC0
6E40
ENDCHAR
STARTCHAR quoteright
ENCODING 8217
SWIDTH 428 0
DWIDTH 5 0
BBX 5 8 0 0
BITMAP
6A40
F7C0
FFC0
FFC0
FFC0
FFC0
FFC0
6E40
ENDCHAR
STARTCHAR quotesinglbase
ENCODING 8218
SWIDTH 428 0
DWIDTH 5 0
BBX 5 8 0 0
BITMAP
6F40
FFC0
FFC0
FFC0
FBC0
F7C0
FFC0
6E40
ENDCHAR
STARTCHAR quotedblleft
ENCODING 8220
SWIDTH 428 0
DWIDTH 5 0
BBX 5 8 0 0
BITMAP
6A40
E6C0
FFC0
FFC0
FFC0
FFC0
FFC0
6E40
ENDCHAR
STARTCHAR quotedblright
ENCODING 8221
SWIDTH 428 0
DWIDTH 5 0
BBX 5 8 0 0
BITMAP
6940
F6C0
FFC0
FFC0
FFC0
FFC0
FFC0
6E40
ENDCHAR
STARTCHAR quotedblbase
ENCODING 8222
SWIDTH 428 0
DWIDTH 5 0
BBX 5 8 0 0
BITMAP
6F40
FFC0
FFC0
FFC0
FAC0
F5C0
FFC0
6E40
ENDCHAR
STARTCHAR dagger
ENCODING 8224
SWIDTH 578 0
DWIDTH 7 0
BBX 7 8 0 0
BITMAP
6EE0
FD78
FDBC
FDFC
FDFC
FEFC
FFF8
6FE0
ENDCHAR
STARTCHAR daggerdbl
ENCODING 8225
SWIDTH 578 0
DWIDTH 7 0
BBX 7 8 0 0
BITMAP
6EE0
FD78
FDBC
FDBC
FDBC
FEFC
FFF8
6FE0
ENDCHAR
STARTCHAR bullet
ENCODING 8226
SWIDTH 578 0
DWIDTH 7 0
BBX 7 8 0 0
BITMAP
6FE0
F428
F02C
F02C
F02C
FFFC
FFF8
6FE0
ENDCHAR
STARTCHAR ellipsis
ENCODING 8230
SWIDTH 578 0
DWIDTH 7 0
BBX 7 8 0 0
BITMAP
6FE0
FFF8
FFFC
FFFC
EEBC
FEBC
FFF8
6FE0
ENDCHAR
STARTCHAR perthousand
ENCODING 8240
SWIDTH 640 0
DWIDTH 8 0
BBX 8 8 0 0
BITMAP
6FF8
59FE
96FE
F565
F555
FFFE
FFFE
6FF8
ENDCHAR
STARTCHAR guilsinglleft
ENCODING 8249
SWIDTH 578 0
DWIDTH 7 0
BBX 7 8 0 0
BITMAP
6FE0
FFB8
FDFC
FAFC
FEFC
FFBC
FFF8
6FE0
ENDCHAR
STARTCHAR guilsinglright
ENCODING 8250
SWIDTH 578 0
DWIDTH 7 0
BBX 7 8 0 0
BITMAP
6FE0
FEF8
FEBC
FF7C
FDFC
FEFC
FFF8
6FE0
ENDCHAR
STARTCHAR fraction
ENCODING 8260
SWIDTH 428 0
DWIDTH 5 0
BBX 5 8 0 0
BITMAP
6A40
F7C0
F7C0
F7C0
F7C0
FBC0
FFC0
6E40
ENDCHAR
STARTCHAR Euro
ENCODING 8364
SWIDTH 578 0
DWIDTH 7 0
BBX 7 8 0 0
BITMAP
6AA0
F7F8
D6FC
D6FC
F6BC
FABC
FFF8
6FE0
ENDCHAR
STARTCHAR trademark
ENCODING 8482
SWIDTH 578 0
DWIDTH 7 0
BBX 7 8 0 0
BITMAP
6FE0
FFF8
F6BC
F93C
FFFC
FFFC
FFF8
6FE0
ENDCHAR
STARTCHAR product
ENCODING 8719
SWIDTH 578 0
DWIDTH 7 0
BBX 7 8 0 0
BITMAP
6AA0
EAA8
EBA8
EA78
EBEC
FAAC
FFF8
6FE0
ENDCHAR
STARTCHAR minus
ENCODING 8722
SWIDTH 428 0
DWIDTH 5 0
BBX 5 8 0 0
BITMAP
6F40
FFC0
E6C0
FFC0
FFC0
FFC0
FFC0
6E40
ENDCHAR
STARTCHAR notequal
ENCODING 8800
SWIDTH 578 0
DWIDTH 7 0
BBX 7 8 0 0
BITMAP
6FE0
FA78
F9BC
F5BC
FFFC
FFFC
FFF8
6FE0
ENDCHAR
STARTCHAR uni2706
ENCODING 9990
SWIDTH 578 0
DWIDTH 7 0
BBX 7 8 0 0
BITMAP
6EE0
FEB8
F6BC
F7FC
F9BC
FE7C
FFF8
6FE0
ENDCHAR
STARTCHAR uni2708
ENCODING 9992
SWIDTH 578 0
DWIDTH 7 0
BBX 7 8 0 0
BITMAP
1550
4204
4A94
4244
4204
4004
4204
1550
ENDCHAR
STARTCHAR uniF6D6
ENCODING 63190
SWIDTH 419 0
DWIDTH 5 0
BBX 5 4 0 0
BITMAP
7E00
EB40
7AC0
2A80
ENDCHAR
STARTCHAR uFFFF2
ENCODING 1048562
SWIDTH 578 0
DWIDTH 7 0
BBX 7 8 0 0
BITMAP
1550
4204
4344
4A94
4204
4104
4204
1550
ENDCHAR
STARTCHAR uFFFF3
ENCODING 1048563
SWIDTH 578 0
DWIDTH 7 0
BBX 7 8 0 0
BITMAP
1550
4244
4684
4344
4684
4144
4004
1550
ENDCHAR
STARTCHAR uFFFF4
ENCODING 1048564
SWIDTH 578 0
DWIDTH 7 0
BBX 7 8 0 0
BITMAP
6FE0
FEB8
FAAC
EBEC
F67C
FFFC
FFF8
6FE0
ENDCHAR
STARTCHAR uFFFF5
ENCODING 1048565
SWIDTH 578 0
DWIDTH 7 0
BBX 7 8 0 0
BITMAP
6EA0
FDF8
F56C
FDBC
FDFC
FFFC
FDF8
6EE0
ENDCHAR
STARTCHAR uFFFF6
ENCODING 1048566
SWIDTH 578 0
DWIDTH 7 0
BBX 7 8 0 0
BITMAP
6FE0
FDF8
FCBC
F56C
FDFC
FEFC
FDF8
6EE0
ENDCHAR
STARTCHAR uFFFF8
ENCODING 1048568
SWIDTH 578 0
DWIDTH 7 0
BBX 7 8 0 0
BITMAP
6FE0
F9B8
F57C
F4BC
F03C
F9BC
FDF8
6EE0
ENDCHAR
STARTCHAR uFFFF9
ENCODING 1048569
SWIDTH 578 0
DWIDTH 7 0
BBX 7 8 0 0
BITMAP
1550
4104
4554
5414
4984
4004
4004
1550
ENDCHAR
STARTCHAR uFFFFB
ENCODING 1048571
SWIDTH 578 0
DWIDTH 7 0
BBX 7 8 0 0
BITMAP
6EE0
F9B8
F9BC
F8BC
F97C
FEFC
FFF8
6FE0
ENDCHAR
STARTCHAR uFFFFC
ENCODING 1048572
SWIDTH 578 0
DWIDTH 7 0
BBX 7 8 0 0
BITMAP
6EE0
E558
E56C
FABC
FEFC
FFFC
FFF8
6FE0
ENDCHAR
STARTCHAR uFFFFD
ENCODING 1048573
SWIDTH 578 0
DWIDTH 7 0
BBX 7 8 0 0
BITMAP
6FE0
F478
F02C
F9BC
F9BC
FEFC
FDF8
6EE0
ENDCHAR
STARTCHAR uFFFFE
ENCODING 1048574
SWIDTH 578 0
DWIDTH 7 0
BBX 7 8 0 0
BITMAP
6FE0
D958
D5AC
EDAC
EAAC
FFFC
FFF8
6FE0
ENDCHAR
STARTCHAR uFFFFF
ENCODING 1048575
SWIDTH 578 0
DWIDTH 7 0
BBX 7 8 0 0
BITMAP
1550
4B84
4FD4
4644
4644
4104
4204
1550
ENDCHAR
STARTCHAR .notdef
ENCODING -1
SWIDTH 1000 0
DWIDTH 12 0
BBX 1 1 0 0
BITMAP
00
ENDCHAR
STARTCHAR glyph1
ENCODING -1
SWIDTH 0 0
DWIDTH 0 0
BBX 1 1 0 0
BITMAP
00
ENDCHAR
ENDFONT
